<svg version="1.1" id="Layer_1" xmlns="http://www.w3.org/2000/svg" xmlns:xlink="http://www.w3.org/1999/xlink" x="0px" y="0px"
	 width="100%" viewBox="0 0 1024 1024" enable-background="new 0 0 1024 1024" xml:space="preserve">
<path fill="none" opacity="1.000000" stroke="none" 
	d="
M653.000000,1025.000000 
	C435.333344,1025.000000 218.166672,1025.000000 1.000000,1025.000000 
	C1.000000,683.666687 1.000000,342.333344 1.000000,1.000000 
	C342.333344,1.000000 683.666687,1.000000 1025.000000,1.000000 
	C1025.000000,342.333344 1025.000000,683.666687 1025.000000,1025.000000 
	C901.166687,1025.000000 777.333313,1025.000000 653.000000,1025.000000 
M189.810074,506.416840 
	C181.044662,509.531342 172.235062,512.527588 163.523056,515.784973 
	C145.296570,522.599731 127.085205,529.458069 108.935356,536.473755 
	C90.019318,543.785583 71.217598,551.393311 52.298561,558.697327 
	C41.362301,562.919373 41.302692,562.764282 44.816566,573.664795 
	C44.867294,573.822144 44.913990,573.991577 44.910088,574.154114 
	C44.755421,580.594299 49.091503,582.163574 54.290276,582.875732 
	C67.948235,584.746704 81.605659,586.622681 95.255280,588.553223 
	C117.648788,591.720581 140.021408,595.039429 162.430099,598.094299 
	C182.842667,600.876953 203.282425,603.467590 223.730667,605.975952 
	C228.906021,606.610840 231.897980,608.380676 233.132370,614.138245 
	C236.998566,632.171387 241.471695,650.077820 245.902237,667.985718 
	C255.254456,705.786743 264.614014,743.586853 274.254852,781.314697 
	C276.074707,788.436401 279.213348,795.221069 281.862610,802.488037 
	C283.476349,801.601440 284.288269,801.324402 284.884674,800.801636 
	C291.109833,795.344482 297.132965,789.643494 303.531586,784.399963 
	C324.377411,767.317261 345.380249,750.426208 366.277954,733.406616 
	C384.070099,718.916199 401.775696,704.319458 419.570892,689.832825 
	C426.361115,684.305054 433.269623,678.920959 440.194122,673.561768 
	C441.032959,672.912476 442.339783,672.455383 443.378754,672.539429 
	C457.975189,673.720032 472.610840,674.613770 487.140259,676.375000 
	C504.926331,678.531006 522.608643,681.529846 540.361023,683.981812 
	C550.714172,685.411743 561.094421,686.828857 571.510986,687.500427 
	C574.490479,687.692505 578.295471,685.976501 580.578918,683.886597 
	C585.959717,678.962036 590.707458,673.335266 595.611084,667.902100 
	C604.633362,657.905701 613.662048,647.913208 622.545166,637.793579 
	C635.588989,622.934021 648.368042,607.840271 661.517761,593.075867 
	C675.120789,577.802368 689.084534,562.850952 702.793335,547.670837 
	C717.272278,531.638062 731.738770,515.591736 746.026611,499.389069 
	C766.688416,475.958344 787.267944,452.453857 807.727905,428.846832 
	C828.308960,405.100189 848.639893,381.136902 869.192932,357.365814 
	C889.311829,334.096771 909.372070,310.771698 929.831299,287.803711 
	C947.960571,267.451294 966.602173,247.555115 985.019043,227.458832 
	C988.732666,223.406586 988.896912,218.457718 985.462646,213.838699 
	C981.890808,209.034622 978.416016,208.299149 972.906921,211.100235 
	C971.432007,211.850159 969.896667,212.502625 968.342041,213.071091 
	C958.036804,216.839188 947.650574,220.395706 937.419983,224.355301 
	C919.124451,231.436310 900.968689,238.878830 882.663574,245.934372 
	C866.389771,252.206924 850.001770,258.183899 833.648315,264.248657 
	C803.229248,275.529785 772.804932,286.796631 742.369873,298.034424 
	C730.684814,302.348999 718.930908,306.478668 707.269287,310.854706 
	C694.962402,315.472839 682.771912,320.402100 670.452515,324.985535 
	C648.169678,333.275940 625.786865,341.298584 603.525635,349.645782 
	C586.081116,356.186829 568.781006,363.111633 551.374207,369.754517 
	C521.224976,381.260284 491.068817,392.748932 460.867371,404.116608 
	C429.733093,415.835388 398.541046,427.400574 367.374664,439.034027 
	C340.252228,449.157928 313.123901,459.266083 286.010712,469.414581 
	C270.269745,475.306488 254.521744,481.181915 238.834778,487.215149 
	C222.695480,493.422394 206.626526,499.812469 189.810074,506.416840 
z"/>
<path fill="#1A1A1A" opacity="1.000000" stroke="none" 
	d="
M190.168427,506.269714 
	C206.626526,499.812469 222.695480,493.422394 238.834778,487.215149 
	C254.521744,481.181915 270.269745,475.306488 286.010712,469.414581 
	C313.123901,459.266083 340.252228,449.157928 367.374664,439.034027 
	C398.541046,427.400574 429.733093,415.835388 460.867371,404.116608 
	C491.068817,392.748932 521.224976,381.260284 551.374207,369.754517 
	C568.781006,363.111633 586.081116,356.186829 603.525635,349.645782 
	C625.786865,341.298584 648.169678,333.275940 670.452515,324.985535 
	C682.771912,320.402100 694.962402,315.472839 707.269287,310.854706 
	C718.930908,306.478668 730.684814,302.348999 742.369873,298.034424 
	C772.804932,286.796631 803.229248,275.529785 833.648315,264.248657 
	C850.001770,258.183899 866.389771,252.206924 882.663574,245.934372 
	C900.968689,238.878830 919.124451,231.436310 937.419983,224.355301 
	C947.650574,220.395706 958.036804,216.839188 968.342041,213.071091 
	C969.896667,212.502625 971.432007,211.850159 972.906921,211.100235 
	C978.416016,208.299149 981.890808,209.034622 985.462646,213.838699 
	C988.896912,218.457718 988.732666,223.406586 985.019043,227.458832 
	C966.602173,247.555115 947.960571,267.451294 929.831299,287.803711 
	C909.372070,310.771698 889.311829,334.096771 869.192932,357.365814 
	C848.639893,381.136902 828.308960,405.100189 807.727905,428.846832 
	C787.267944,452.453857 766.688416,475.958344 746.026611,499.389069 
	C731.738770,515.591736 717.272278,531.638062 702.793335,547.670837 
	C689.084534,562.850952 675.120789,577.802368 661.517761,593.075867 
	C648.368042,607.840271 635.588989,622.934021 622.545166,637.793579 
	C613.662048,647.913208 604.633362,657.905701 595.611084,667.902100 
	C590.707458,673.335266 585.959717,678.962036 580.578918,683.886597 
	C578.295471,685.976501 574.490479,687.692505 571.510986,687.500427 
	C561.094421,686.828857 550.714172,685.411743 540.361023,683.981812 
	C522.608643,681.529846 504.926331,678.531006 487.140259,676.375000 
	C472.610840,674.613770 457.975189,673.720032 443.378754,672.539429 
	C442.339783,672.455383 441.032959,672.912476 440.194122,673.561768 
	C433.269623,678.920959 426.361115,684.305054 419.570892,689.832825 
	C401.775696,704.319458 384.070099,718.916199 366.277954,733.406616 
	C345.380249,750.426208 324.377411,767.317261 303.531586,784.399963 
	C297.132965,789.643494 291.109833,795.344482 284.884674,800.801636 
	C284.288269,801.324402 283.476349,801.601440 281.862610,802.488037 
	C279.213348,795.221069 276.074707,788.436401 274.254852,781.314697 
	C264.614014,743.586853 255.254456,705.786743 245.902237,667.985718 
	C241.471695,650.077820 236.998566,632.171387 233.132370,614.138245 
	C231.897980,608.380676 228.906021,606.610840 223.730667,605.975952 
	C203.282425,603.467590 182.842667,600.876953 162.430099,598.094299 
	C140.021408,595.039429 117.648788,591.720581 95.255280,588.553223 
	C81.605659,586.622681 67.948235,584.746704 54.290276,582.875732 
	C49.091503,582.163574 44.755421,580.594299 44.910088,574.154114 
	C44.913990,573.991577 44.867294,573.822144 44.816566,573.664795 
	C41.302692,562.764282 41.362301,562.919373 52.298561,558.697327 
	C71.217598,551.393311 90.019318,543.785583 108.935356,536.473755 
	C127.085205,529.458069 145.296570,522.599731 163.523056,515.784973 
	C172.235062,512.527588 181.044662,509.531342 190.168427,506.269714 
M889.233459,271.074158 
	C887.221558,271.850830 885.119385,272.451721 883.211670,273.431244 
	C862.922546,283.848633 842.639526,294.278412 822.402771,304.797119 
	C782.357605,325.611969 742.346680,346.492767 702.314026,367.331787 
	C669.228333,384.554504 636.191528,401.872559 603.025330,418.938995 
	C558.597290,441.800507 514.066772,464.462921 469.576324,487.203064 
	C463.645416,490.234497 457.663696,493.167328 451.753174,496.237610 
	C431.064178,506.984619 410.399292,517.778015 389.718872,528.541748 
	C373.771881,536.841797 357.815125,545.123169 341.863220,553.413818 
	C321.032074,564.240295 300.229095,575.121521 279.358643,585.871765 
	C269.301727,591.052002 259.071411,595.895386 249.009354,601.065979 
	C243.105621,604.099792 242.099640,607.022339 243.893143,613.241455 
	C247.815475,626.842590 251.845703,640.416809 255.486893,654.093872 
	C265.684814,692.399475 275.699524,730.753845 285.828186,769.077942 
	C286.243073,770.647827 287.079407,772.106384 287.719391,773.616821 
	C288.168823,773.559570 288.618225,773.502380 289.067657,773.445190 
	C289.563995,771.586609 290.064270,769.729004 290.556030,767.869202 
	C300.219147,731.326233 309.847931,694.774109 319.629303,658.262756 
	C320.195831,656.148010 321.666992,654.004150 323.295990,652.501221 
	C326.831055,649.239624 330.563965,646.126465 334.527100,643.405823 
	C356.629578,628.232544 378.702240,613.010254 401.017303,598.153625 
	C434.148315,576.096130 467.612366,554.537659 500.683044,532.391113 
	C549.527161,499.681519 598.099487,466.566315 646.890930,433.777802 
	C668.315002,419.380554 689.913574,405.238464 711.577515,391.203918 
	C738.691772,373.638519 766.216675,356.695099 793.084961,338.764984 
	C823.971069,318.153595 854.341248,296.768646 884.902893,275.672394 
	C886.788879,274.370544 888.389465,272.655396 890.558655,271.050629 
	C891.108276,270.856110 891.657959,270.661560 892.207581,270.467041 
	C892.121399,270.252350 892.035156,270.037659 891.948975,269.822968 
	C891.288452,270.198669 890.627991,270.574402 889.233459,271.074158 
M397.305603,656.051514 
	C404.369476,657.026367 411.413879,658.184265 418.501343,658.937622 
	C432.850037,660.462769 447.219940,661.790833 461.585022,663.159302 
	C482.217072,665.124939 502.843567,667.157593 523.489746,668.963806 
	C538.196716,670.250488 552.924133,671.344788 567.659973,672.232849 
	C571.800964,672.482361 576.121521,672.864319 579.491028,668.909302 
	C593.803040,652.110291 608.297974,635.466858 622.744568,618.782654 
	C637.844421,601.344055 653.004333,583.957336 668.067566,566.487183 
	C688.548645,542.733459 708.920959,518.885803 729.417908,495.145691 
	C749.048706,472.408813 768.655151,449.648834 788.503235,427.102295 
	C805.727356,407.536407 823.255615,388.238007 840.684631,368.853027 
	C856.005859,351.812408 871.511719,334.935730 886.686523,317.766052 
	C902.293396,300.107483 917.612854,282.194580 933.019043,264.359253 
	C935.277771,261.744385 937.320435,258.942841 939.463074,256.227661 
	C939.154175,255.919952 938.845276,255.612244 938.536316,255.304520 
	C740.376404,386.774200 542.216431,518.243896 344.056458,649.713562 
	C344.099884,650.111755 344.143311,650.509949 344.186737,650.908081 
	C361.590668,652.612061 378.994598,654.315979 397.305603,656.051514 
M403.085205,439.505798 
	C402.017334,439.969269 400.966827,440.478699 399.879059,440.889435 
	C375.791168,449.985352 351.706848,459.090790 327.605896,468.152069 
	C299.459473,478.734344 271.309265,489.306763 243.139648,499.827026 
	C216.218536,509.881104 189.271957,519.866882 162.333710,529.875000 
	C131.654327,541.272949 100.972153,552.663391 70.290298,564.054626 
	C65.083771,565.987610 59.872456,567.907837 53.627476,570.216919 
	C55.793846,571.090515 56.787369,571.749573 57.845337,571.878174 
	C69.535004,573.298157 81.239380,574.596924 92.930550,576.005005 
	C110.056160,578.067688 127.185730,580.103943 144.292511,582.314880 
	C163.370041,584.780640 182.418747,587.468445 201.489899,589.984863 
	C214.968109,591.763245 228.455948,593.475464 241.959030,595.049683 
	C243.571686,595.237671 245.502426,594.730286 246.954773,593.938354 
	C258.478027,587.654480 269.825287,581.043579 281.409760,574.877197 
	C302.546692,563.626038 323.817230,552.626099 345.018005,541.494629 
	C371.212952,527.740967 397.436676,514.041260 423.568634,500.168732 
	C451.317535,485.437805 478.946228,470.480621 506.677032,455.715424 
	C539.835144,438.060425 573.032288,420.478577 606.238159,402.913513 
	C631.076782,389.774536 655.953003,376.706696 680.817871,363.617493 
	C712.882874,346.738068 744.910889,329.787628 777.035645,313.022552 
	C800.334656,300.863403 823.787659,288.999817 847.121887,276.907501 
	C853.626587,273.536652 859.952820,269.821167 866.360901,266.263794 
	C864.191650,265.849884 862.471863,266.312347 860.816101,266.942932 
	C834.425171,276.993500 808.039734,287.058197 781.658752,297.134735 
	C753.104431,308.041412 724.566467,318.991058 696.000916,329.868134 
	C680.320679,335.838776 664.602295,341.709412 648.893921,347.605865 
	C620.122009,358.406036 591.353149,369.214233 562.567322,379.977203 
	C535.646790,390.042694 508.703491,400.047302 481.774750,410.090851 
	C455.780792,419.785736 429.792694,429.496185 403.085205,439.505798 
M350.405853,734.923035 
	C357.573608,728.725342 364.655243,722.424438 371.927734,716.352173 
	C385.457764,705.055359 399.184174,693.992432 412.644806,682.614502 
	C416.966827,678.960999 420.709473,674.622192 425.471375,669.839478 
	C422.772400,669.421021 421.508331,669.158569 420.230804,669.036804 
	C396.237549,666.750366 372.228729,664.616821 348.253937,662.151855 
	C335.584625,660.849243 334.916168,661.176575 331.243469,673.949646 
	C323.841644,699.691895 316.304779,725.395386 308.838776,751.119202 
	C306.777405,758.221680 304.769562,765.339661 302.737183,772.450562 
	C303.133606,772.731873 303.530029,773.013184 303.926483,773.294495 
	C319.236237,760.652649 334.546021,748.010803 350.405853,734.923035 
z"/>
<path fill="#827d7d" opacity="1.000000" stroke="none" 
	d="
M396.852051,656.035767 
	C378.994598,654.315979 361.590668,652.612061 344.186737,650.908081 
	C344.143311,650.509949 344.099884,650.111755 344.056458,649.713562 
	C542.216431,518.243896 740.376404,386.774200 938.536316,255.304520 
	C938.845276,255.612244 939.154175,255.919952 939.463074,256.227661 
	C937.320435,258.942841 935.277771,261.744385 933.019043,264.359253 
	C917.612854,282.194580 902.293396,300.107483 886.686523,317.766052 
	C871.511719,334.935730 856.005859,351.812408 840.684631,368.853027 
	C823.255615,388.238007 805.727356,407.536407 788.503235,427.102295 
	C768.655151,449.648834 749.048706,472.408813 729.417908,495.145691 
	C708.920959,518.885803 688.548645,542.733459 668.067566,566.487183 
	C653.004333,583.957336 637.844421,601.344055 622.744568,618.782654 
	C608.297974,635.466858 593.803040,652.110291 579.491028,668.909302 
	C576.121521,672.864319 571.800964,672.482361 567.659973,672.232849 
	C552.924133,671.344788 538.196716,670.250488 523.489746,668.963806 
	C502.843567,667.157593 482.217072,665.124939 461.585022,663.159302 
	C447.219940,661.790833 432.850037,660.462769 418.501343,658.937622 
	C411.413879,658.184265 404.369476,657.026367 396.852051,656.035767 
z"/>
<path fill="#644747" opacity="1.000000" stroke="none" 
	d="
M403.443604,439.352783 
	C429.792694,429.496185 455.780792,419.785736 481.774750,410.090851 
	C508.703491,400.047302 535.646790,390.042694 562.567322,379.977203 
	C591.353149,369.214233 620.122009,358.406036 648.893921,347.605865 
	C664.602295,341.709412 680.320679,335.838776 696.000916,329.868134 
	C724.566467,318.991058 753.104431,308.041412 781.658752,297.134735 
	C808.039734,287.058197 834.425171,276.993500 860.816101,266.942932 
	C862.471863,266.312347 864.191650,265.849884 866.360901,266.263794 
	C859.952820,269.821167 853.626587,273.536652 847.121887,276.907501 
	C823.787659,288.999817 800.334656,300.863403 777.035645,313.022552 
	C744.910889,329.787628 712.882874,346.738068 680.817871,363.617493 
	C655.953003,376.706696 631.076782,389.774536 606.238159,402.913513 
	C573.032288,420.478577 539.835144,438.060425 506.677032,455.715424 
	C478.946228,470.480621 451.317535,485.437805 423.568634,500.168732 
	C397.436676,514.041260 371.212952,527.740967 345.018005,541.494629 
	C323.817230,552.626099 302.546692,563.626038 281.409760,574.877197 
	C269.825287,581.043579 258.478027,587.654480 246.954773,593.938354 
	C245.502426,594.730286 243.571686,595.237671 241.959030,595.049683 
	C228.455948,593.475464 214.968109,591.763245 201.489899,589.984863 
	C182.418747,587.468445 163.370041,584.780640 144.292511,582.314880 
	C127.185730,580.103943 110.056160,578.067688 92.930550,576.005005 
	C81.239380,574.596924 69.535004,573.298157 57.845337,571.878174 
	C56.787369,571.749573 55.793846,571.090515 53.627476,570.216919 
	C59.872456,567.907837 65.083771,565.987610 70.290298,564.054626 
	C100.972153,552.663391 131.654327,541.272949 162.333710,529.875000 
	C189.271957,519.866882 216.218536,509.881104 243.139648,499.827026 
	C271.309265,489.306763 299.459473,478.734344 327.605896,468.152069 
	C351.706848,459.090790 375.791168,449.985352 399.879059,440.889435 
	C400.966827,440.478699 402.017334,439.969269 403.443604,439.352783 
z"/>
<path fill="#433838" opacity="1.000000" stroke="none" 
	d="
M890.122864,271.132538 
	C888.389465,272.655396 886.788879,274.370544 884.902893,275.672394 
	C854.341248,296.768646 823.971069,318.153595 793.084961,338.764984 
	C766.216675,356.695099 738.691772,373.638519 711.577515,391.203918 
	C689.913574,405.238464 668.315002,419.380554 646.890930,433.777802 
	C598.099487,466.566315 549.527161,499.681519 500.683044,532.391113 
	C467.612366,554.537659 434.148315,576.096130 401.017303,598.153625 
	C378.702240,613.010254 356.629578,628.232544 334.527100,643.405823 
	C330.563965,646.126465 326.831055,649.239624 323.295990,652.501221 
	C321.666992,654.004150 320.195831,656.148010 319.629303,658.262756 
	C309.847931,694.774109 300.219147,731.326233 290.556030,767.869202 
	C290.064270,769.729004 289.563995,771.586609 289.067657,773.445190 
	C288.618225,773.502380 288.168823,773.559570 287.719391,773.616821 
	C287.079407,772.106384 286.243073,770.647827 285.828186,769.077942 
	C275.699524,730.753845 265.684814,692.399475 255.486893,654.093872 
	C251.845703,640.416809 247.815475,626.842590 243.893143,613.241455 
	C242.099640,607.022339 243.105621,604.099792 249.009354,601.065979 
	C259.071411,595.895386 269.301727,591.052002 279.358643,585.871765 
	C300.229095,575.121521 321.032074,564.240295 341.863220,553.413818 
	C357.815125,545.123169 373.771881,536.841797 389.718872,528.541748 
	C410.399292,517.778015 431.064178,506.984619 451.753174,496.237610 
	C457.663696,493.167328 463.645416,490.234497 469.576324,487.203064 
	C514.066772,464.462921 558.597290,441.800507 603.025330,418.938995 
	C636.191528,401.872559 669.228333,384.554504 702.314026,367.331787 
	C742.346680,346.492767 782.357605,325.611969 822.402771,304.797119 
	C842.639526,294.278412 862.922546,283.848633 883.211670,273.431244 
	C885.119385,272.451721 887.221558,271.850830 889.639160,271.057861 
	C890.044922,271.041534 890.122864,271.132538 890.122864,271.132538 
z"/>
<path fill="#433838" opacity="1.000000" stroke="none" 
	d="
M350.130798,735.145996 
	C334.546021,748.010803 319.236237,760.652649 303.926483,773.294495 
	C303.530029,773.013184 303.133606,772.731873 302.737183,772.450562 
	C304.769562,765.339661 306.777405,758.221680 308.838776,751.119202 
	C316.304779,725.395386 323.841644,699.691895 331.243469,673.949646 
	C334.916168,661.176575 335.584625,660.849243 348.253937,662.151855 
	C372.228729,664.616821 396.237549,666.750366 420.230804,669.036804 
	C421.508331,669.158569 422.772400,669.421021 425.471375,669.839478 
	C420.709473,674.622192 416.966827,678.960999 412.644806,682.614502 
	C399.184174,693.992432 385.457764,705.055359 371.927734,716.352173 
	C364.655243,722.424438 357.573608,728.725342 350.130798,735.145996 
z"/>
<path fill="#433838" opacity="1.000000" stroke="none" 
	d="
M890.006226,270.995819 
	C890.627991,270.574402 891.288452,270.198669 891.948975,269.822968 
	C892.035156,270.037659 892.121399,270.252350 892.207581,270.467041 
	C891.657959,270.661560 891.108276,270.856110 890.340759,271.091583 
	C890.122864,271.132538 890.044922,271.041534 890.006226,270.995819 
z"/>
</svg>