<svg version="1.1" id="Layer_1" xmlns="http://www.w3.org/2000/svg" xmlns:xlink="http://www.w3.org/1999/xlink" x="0px" y="0px"
	 width="100%" viewBox="0 0 1024 1024" enable-background="new 0 0 1024 1024" xml:space="preserve">
<path fill="none" opacity="1.000000" stroke="none" 
	d="
M705.000000,1025.000000 
	C470.000000,1025.000000 235.500000,1025.000000 1.000000,1025.000000 
	C1.000000,683.666687 1.000000,342.333344 1.000000,1.000000 
	C342.333344,1.000000 683.666687,1.000000 1025.000000,1.000000 
	C1025.000000,342.333344 1025.000000,683.666687 1025.000000,1025.000000 
	C918.500000,1025.000000 812.000000,1025.000000 705.000000,1025.000000 
M170.992737,492.602448 
	C166.885223,493.962860 162.725998,495.185760 158.679062,496.707306 
	C140.309494,503.613708 121.938995,510.519928 103.631180,517.587708 
	C84.246483,525.071289 64.965767,532.824585 45.572151,540.284546 
	C36.741226,543.681519 35.889294,545.281921 39.606892,554.024170 
	C39.799194,554.476379 39.957928,554.990601 39.949974,555.473022 
	C39.846710,561.735962 44.179787,563.152893 49.116302,563.843567 
	C62.774940,565.754578 76.443359,567.595886 90.099648,569.523315 
	C112.661125,572.707642 135.204559,576.022095 157.777771,579.120178 
	C173.745026,581.311646 189.751678,583.214722 205.734802,585.292175 
	C211.180786,586.000061 216.703094,586.474731 221.997620,587.816895 
	C224.067032,588.341553 226.667862,590.669373 227.212173,592.669678 
	C230.442017,604.539001 233.204758,616.537964 235.998932,628.522644 
	C239.284683,642.615784 242.257187,656.784180 245.701752,670.837524 
	C250.177963,689.099976 254.747986,707.346375 259.718842,725.478760 
	C264.422882,742.638000 269.523315,759.694885 274.809235,776.684937 
	C276.827362,783.171631 278.439697,783.358887 283.988831,779.253967 
	C284.921387,778.564026 285.751892,777.729248 286.591400,776.921753 
	C290.657593,773.010803 294.462952,768.784302 298.810577,765.218018 
	C319.390167,748.336243 340.144470,731.667725 360.782410,714.856750 
	C378.701965,700.260071 396.523102,685.542603 414.441437,670.944397 
	C421.229523,665.414062 428.123596,660.010010 435.085388,654.700623 
	C436.131836,653.902649 437.857269,653.520020 439.197449,653.654480 
	C455.397736,655.279541 471.602661,656.886108 487.769928,658.804810 
	C503.604187,660.683960 519.390625,662.962952 535.209351,664.977051 
	C545.743713,666.318481 556.276123,667.820190 566.857788,668.546570 
	C569.685181,668.740723 573.319519,667.027954 575.489014,665.012512 
	C580.835815,660.045532 585.598022,654.440369 590.503418,649.008911 
	C599.528992,639.015564 608.572998,629.036560 617.455872,618.916931 
	C630.499207,604.057617 643.265869,588.953796 656.412903,574.187805 
	C670.013306,558.912537 683.982605,543.966492 697.688599,528.784363 
	C712.275940,512.625793 726.784729,496.395660 741.248901,480.126617 
	C750.523621,469.694611 759.633545,459.116272 768.857422,448.638824 
	C779.509155,436.539429 790.291016,424.553467 800.858337,412.381012 
	C812.189392,399.328888 823.358826,386.136047 834.557739,372.969727 
	C844.898987,360.811737 855.158875,348.584686 865.503784,336.429901 
	C876.175781,323.890930 886.769958,311.281738 897.649719,298.924774 
	C909.292053,285.701630 921.203186,272.714630 933.042908,259.666168 
	C943.544006,248.092957 954.091064,236.561264 964.651245,225.041901 
	C969.932495,219.281052 975.358093,213.651398 980.584839,207.842239 
	C983.806763,204.261292 983.730713,199.201401 980.542297,194.981766 
	C977.847900,191.415985 974.653381,189.205734 969.827271,191.102798 
	C949.885254,198.941498 929.928345,206.743195 909.942566,214.469345 
	C888.395813,222.798965 866.839905,231.106461 845.232666,239.277496 
	C828.741211,245.513931 812.178162,251.562424 795.619995,257.620850 
	C780.150330,263.281006 764.616821,268.767120 749.162842,274.469238 
	C729.984314,281.545593 710.872192,288.801880 691.706055,295.912109 
	C674.396729,302.333466 657.019958,308.573975 639.733093,315.054626 
	C616.685913,323.694824 593.697693,332.492218 570.682617,341.218201 
	C553.890930,347.584625 537.085510,353.915070 520.306641,360.315002 
	C497.144073,369.149811 474.023895,378.096069 450.841370,386.878113 
	C433.887848,393.300476 416.855194,399.513672 399.872101,405.858337 
	C369.797302,417.093964 339.728394,428.345490 309.666748,439.616333 
	C293.929413,445.516602 278.202759,451.445526 262.489288,457.408997 
	C240.098724,465.906525 217.715240,474.422882 195.348785,482.983643 
	C187.438782,486.011200 179.587601,489.192444 170.992737,492.602448 
z"/>
<path fill="#1A1A1A" opacity="1.000000" stroke="none" 
	d="
M171.351166,492.453003 
	C179.587601,489.192444 187.438782,486.011200 195.348785,482.983643 
	C217.715240,474.422882 240.098724,465.906525 262.489288,457.408997 
	C278.202759,451.445526 293.929413,445.516602 309.666748,439.616333 
	C339.728394,428.345490 369.797302,417.093964 399.872101,405.858337 
	C416.855194,399.513672 433.887848,393.300476 450.841370,386.878113 
	C474.023895,378.096069 497.144073,369.149811 520.306641,360.315002 
	C537.085510,353.915070 553.890930,347.584625 570.682617,341.218201 
	C593.697693,332.492218 616.685913,323.694824 639.733093,315.054626 
	C657.019958,308.573975 674.396729,302.333466 691.706055,295.912109 
	C710.872192,288.801880 729.984314,281.545593 749.162842,274.469238 
	C764.616821,268.767120 780.150330,263.281006 795.619995,257.620850 
	C812.178162,251.562424 828.741211,245.513931 845.232666,239.277496 
	C866.839905,231.106461 888.395813,222.798965 909.942566,214.469345 
	C929.928345,206.743195 949.885254,198.941498 969.827271,191.102798 
	C974.653381,189.205734 977.847900,191.415985 980.542297,194.981766 
	C983.730713,199.201401 983.806763,204.261292 980.584839,207.842239 
	C975.358093,213.651398 969.932495,219.281052 964.651245,225.041901 
	C954.091064,236.561264 943.544006,248.092957 933.042908,259.666168 
	C921.203186,272.714630 909.292053,285.701630 897.649719,298.924774 
	C886.769958,311.281738 876.175781,323.890930 865.503784,336.429901 
	C855.158875,348.584686 844.898987,360.811737 834.557739,372.969727 
	C823.358826,386.136047 812.189392,399.328888 800.858337,412.381012 
	C790.291016,424.553467 779.509155,436.539429 768.857422,448.638824 
	C759.633545,459.116272 750.523621,469.694611 741.248901,480.126617 
	C726.784729,496.395660 712.275940,512.625793 697.688599,528.784363 
	C683.982605,543.966492 670.013306,558.912537 656.412903,574.187805 
	C643.265869,588.953796 630.499207,604.057617 617.455872,618.916931 
	C608.572998,629.036560 599.528992,639.015564 590.503418,649.008911 
	C585.598022,654.440369 580.835815,660.045532 575.489014,665.012512 
	C573.319519,667.027954 569.685181,668.740723 566.857788,668.546570 
	C556.276123,667.820190 545.743713,666.318481 535.209351,664.977051 
	C519.390625,662.962952 503.604187,660.683960 487.769928,658.804810 
	C471.602661,656.886108 455.397736,655.279541 439.197449,653.654480 
	C437.857269,653.520020 436.131836,653.902649 435.085388,654.700623 
	C428.123596,660.010010 421.229523,665.414062 414.441437,670.944397 
	C396.523102,685.542603 378.701965,700.260071 360.782410,714.856750 
	C340.144470,731.667725 319.390167,748.336243 298.810577,765.218018 
	C294.462952,768.784302 290.657593,773.010803 286.591400,776.921753 
	C285.751892,777.729248 284.921387,778.564026 283.988831,779.253967 
	C278.439697,783.358887 276.827362,783.171631 274.809235,776.684937 
	C269.523315,759.694885 264.422882,742.638000 259.718842,725.478760 
	C254.747986,707.346375 250.177963,689.099976 245.701752,670.837524 
	C242.257187,656.784180 239.284683,642.615784 235.998932,628.522644 
	C233.204758,616.537964 230.442017,604.539001 227.212173,592.669678 
	C226.667862,590.669373 224.067032,588.341553 221.997620,587.816895 
	C216.703094,586.474731 211.180786,586.000061 205.734802,585.292175 
	C189.751678,583.214722 173.745026,581.311646 157.777771,579.120178 
	C135.204559,576.022095 112.661125,572.707642 90.099648,569.523315 
	C76.443359,567.595886 62.774940,565.754578 49.116302,563.843567 
	C44.179787,563.152893 39.846710,561.735962 39.949974,555.473022 
	C39.957928,554.990601 39.799194,554.476379 39.606892,554.024170 
	C35.889294,545.281921 36.741226,543.681519 45.572151,540.284546 
	C64.965767,532.824585 84.246483,525.071289 103.631180,517.587708 
	C121.938995,510.519928 140.309494,503.613708 158.679062,496.707306 
	C162.725998,495.185760 166.885223,493.962860 171.351166,492.453003 
M804.908752,320.445740 
	C803.202332,321.476471 801.440002,322.425537 799.797729,323.549927 
	C764.987610,347.382935 730.382080,371.520538 695.345093,395.014862 
	C647.880676,426.842651 600.139343,458.258942 552.415466,489.697906 
	C524.671326,507.974945 496.678864,525.874756 468.893829,544.090210 
	C451.391876,555.564209 434.085358,567.335876 416.657654,578.923584 
	C396.606476,592.255554 376.518250,605.531799 356.446259,618.832458 
	C350.584534,622.716675 344.723297,626.601624 338.109009,630.985229 
	C339.756592,631.533813 340.324066,631.839783 340.917542,631.903442 
	C359.879120,633.935486 378.842590,635.949463 397.807037,637.954590 
	C417.270172,640.012634 436.726776,642.135864 456.200470,644.088501 
	C476.660797,646.140015 497.127716,648.140564 517.611267,649.940857 
	C532.651550,651.262695 547.714600,652.376709 562.786682,653.252625 
	C567.075134,653.501770 571.410461,653.662292 574.906067,649.439697 
	C584.852234,637.425354 595.218811,625.757141 605.501648,614.024353 
	C611.742004,606.903931 618.242981,600.010559 624.434387,592.848755 
	C635.829468,579.667542 647.050476,566.335938 658.403992,553.118591 
	C669.329346,540.399719 680.366089,527.776489 691.288574,515.055176 
	C702.639160,501.835205 713.853638,488.498077 725.234436,475.304321 
	C736.837524,461.852966 748.568604,448.511902 760.247192,435.125702 
	C771.377380,422.368134 782.418274,409.530975 793.672791,396.884003 
	C803.943726,385.342194 814.481628,374.038391 824.841980,362.575562 
	C839.764282,346.065491 854.636353,329.509888 869.521729,312.966431 
	C875.854858,305.927826 882.289917,298.975983 888.462585,291.798920 
	C899.282593,279.218414 909.937073,266.495667 920.658813,253.830734 
	C925.301453,248.346603 929.938721,242.857910 934.578430,237.371307 
	C934.403687,237.224258 934.228943,237.077209 934.054138,236.930161 
	C891.198608,264.621552 848.343140,292.312927 804.908752,320.445740 
M393.939270,494.430359 
	C402.126526,490.031464 410.305359,485.616730 418.502686,481.236603 
	C442.542297,468.391327 466.580933,455.544128 490.635468,442.726715 
	C522.313293,425.847290 553.981934,408.950439 585.699585,392.145996 
	C610.818115,378.837891 636.016479,365.680664 661.157410,352.414795 
	C690.256287,337.060394 719.269348,321.542175 748.433105,306.312439 
	C779.388000,290.147400 810.490906,274.265991 841.494263,258.193359 
	C848.217163,254.708069 854.791321,250.935989 861.434021,247.295990 
	C861.333984,247.125366 861.234009,246.954742 861.133972,246.784103 
	C590.720703,348.322266 320.307434,449.860413 49.204597,551.657471 
	C50.958027,552.234436 52.005646,552.770264 53.104149,552.912231 
	C71.354568,555.270020 89.606544,557.617249 107.867882,559.888855 
	C135.181625,563.286499 162.508011,566.582703 189.819092,570.001282 
	C205.608566,571.977661 221.374664,574.140808 237.164459,576.114685 
	C238.489243,576.280334 240.089798,575.968384 241.266525,575.331726 
	C259.533417,565.448730 277.638184,555.260742 296.005676,545.570190 
	C328.357788,528.501526 360.863373,511.723785 393.939270,494.430359 
M758.056335,316.522522 
	C755.734070,317.831268 753.448792,319.211304 751.083984,320.438080 
	C714.562378,339.383636 678.030701,358.309875 641.500793,377.239441 
	C604.821533,396.246338 568.190979,415.347961 531.449402,434.233582 
	C486.259338,457.461823 440.945099,480.448517 395.747833,503.662750 
	C375.452148,514.087097 355.327698,524.844238 335.093384,535.388611 
	C314.710693,546.010254 294.313080,556.603882 273.872070,567.112671 
	C264.250214,572.059326 254.475388,576.707825 244.837967,581.624939 
	C238.096558,585.064453 237.051834,587.813599 239.078796,594.857544 
	C242.902573,608.145691 246.845108,621.403870 250.399429,634.764648 
	C260.593750,673.085327 270.611725,711.452820 280.734222,749.792664 
	C281.162537,751.414917 281.942749,752.944275 283.000549,755.643677 
	C284.058441,753.371887 284.689178,752.413513 284.967712,751.361877 
	C294.777985,714.325623 304.517670,677.270630 314.422211,640.259705 
	C315.074890,637.820679 316.508789,635.227234 318.346527,633.542542 
	C322.505585,629.729919 326.936371,626.130737 331.620605,622.987061 
	C373.393280,594.952087 415.292450,567.105652 457.059784,539.062744 
	C495.371948,513.339661 533.487793,487.323883 571.834534,461.652649 
	C615.859497,432.180084 659.509949,402.100433 704.289307,373.814056 
	C764.035889,336.073029 822.233887,296.077637 880.565735,256.252228 
	C881.676208,255.494095 882.608215,254.474487 883.623474,253.576904 
	C882.031250,253.034119 880.892090,253.145218 879.919739,253.607346 
	C871.043091,257.825897 862.070129,261.865295 853.361877,266.410370 
	C821.761414,282.903625 790.252563,299.572418 758.056335,316.522522 
M340.954163,719.453308 
	C366.821350,696.508728 394.439911,675.556763 419.441284,651.427185 
	C417.476654,650.392334 416.037750,650.157715 414.589569,650.021423 
	C391.383362,647.837708 368.153198,645.880432 344.977051,643.415222 
	C330.165924,641.839722 330.020844,641.856018 325.886719,656.291016 
	C317.082001,687.033936 307.999573,717.697327 299.046844,748.397888 
	C298.568573,750.037964 298.236084,751.720520 297.835693,753.383301 
	C298.257568,753.665161 298.679413,753.947083 299.101257,754.228943 
	C312.868195,742.787781 326.635132,731.346619 340.954163,719.453308 
M888.515442,250.519165 
	C888.515442,250.519165 888.509521,250.485672 888.515442,250.519165 
z"/>
<path fill="#594E4E" opacity="1.000000" stroke="none" 
	d="
M805.198181,320.225037 
	C848.343140,292.312927 891.198608,264.621552 934.054138,236.930161 
	C934.228943,237.077209 934.403687,237.224258 934.578430,237.371307 
	C929.938721,242.857910 925.301453,248.346603 920.658813,253.830734 
	C909.937073,266.495667 899.282593,279.218414 888.462585,291.798920 
	C882.289917,298.975983 875.854858,305.927826 869.521729,312.966431 
	C854.636353,329.509888 839.764282,346.065491 824.841980,362.575562 
	C814.481628,374.038391 803.943726,385.342194 793.672791,396.884003 
	C782.418274,409.530975 771.377380,422.368134 760.247192,435.125702 
	C748.568604,448.511902 736.837524,461.852966 725.234436,475.304321 
	C713.853638,488.498077 702.639160,501.835205 691.288574,515.055176 
	C680.366089,527.776489 669.329346,540.399719 658.403992,553.118591 
	C647.050476,566.335938 635.829468,579.667542 624.434387,592.848755 
	C618.242981,600.010559 611.742004,606.903931 605.501648,614.024353 
	C595.218811,625.757141 584.852234,637.425354 574.906067,649.439697 
	C571.410461,653.662292 567.075134,653.501770 562.786682,653.252625 
	C547.714600,652.376709 532.651550,651.262695 517.611267,649.940857 
	C497.127716,648.140564 476.660797,646.140015 456.200470,644.088501 
	C436.726776,642.135864 417.270172,640.012634 397.807037,637.954590 
	C378.842590,635.949463 359.879120,633.935486 340.917542,631.903442 
	C340.324066,631.839783 339.756592,631.533813 338.109009,630.985229 
	C344.723297,626.601624 350.584534,622.716675 356.446259,618.832458 
	C376.518250,605.531799 396.606476,592.255554 416.657654,578.923584 
	C434.085358,567.335876 451.391876,555.564209 468.893829,544.090210 
	C496.678864,525.874756 524.671326,507.974945 552.415466,489.697906 
	C600.139343,458.258942 647.880676,426.842651 695.345093,395.014862 
	C730.382080,371.520538 764.987610,347.382935 799.797729,323.549927 
	C801.440002,322.425537 803.202332,321.476471 805.198181,320.225037 
z"/>
<path fill="#594E4E" opacity="1.000000" stroke="none" 
	d="
M393.621979,494.627289 
	C360.863373,511.723785 328.357788,528.501526 296.005676,545.570190 
	C277.638184,555.260742 259.533417,565.448730 241.266525,575.331726 
	C240.089798,575.968384 238.489243,576.280334 237.164459,576.114685 
	C221.374664,574.140808 205.608566,571.977661 189.819092,570.001282 
	C162.508011,566.582703 135.181625,563.286499 107.867882,559.888855 
	C89.606544,557.617249 71.354568,555.270020 53.104149,552.912231 
	C52.005646,552.770264 50.958027,552.234436 49.204597,551.657471 
	C320.307434,449.860413 590.720703,348.322266 861.133972,246.784103 
	C861.234009,246.954742 861.333984,247.125366 861.434021,247.295990 
	C854.791321,250.935989 848.217163,254.708069 841.494263,258.193359 
	C810.490906,274.265991 779.388000,290.147400 748.433105,306.312439 
	C719.269348,321.542175 690.256287,337.060394 661.157410,352.414795 
	C636.016479,365.680664 610.818115,378.837891 585.699585,392.145996 
	C553.981934,408.950439 522.313293,425.847290 490.635468,442.726715 
	C466.580933,455.544128 442.542297,468.391327 418.502686,481.236603 
	C410.305359,485.616730 402.126526,490.031464 393.621979,494.627289 
z"/>
<path fill="#262222" opacity="1.000000" stroke="none" 
	d="
M758.382690,316.348755 
	C790.252563,299.572418 821.761414,282.903625 853.361877,266.410370 
	C862.070129,261.865295 871.043091,257.825897 879.919739,253.607346 
	C880.892090,253.145218 882.031250,253.034119 883.623474,253.576904 
	C882.608215,254.474487 881.676208,255.494095 880.565735,256.252228 
	C822.233887,296.077637 764.035889,336.073029 704.289307,373.814056 
	C659.509949,402.100433 615.859497,432.180084 571.834534,461.652649 
	C533.487793,487.323883 495.371948,513.339661 457.059784,539.062744 
	C415.292450,567.105652 373.393280,594.952087 331.620605,622.987061 
	C326.936371,626.130737 322.505585,629.729919 318.346527,633.542542 
	C316.508789,635.227234 315.074890,637.820679 314.422211,640.259705 
	C304.517670,677.270630 294.777985,714.325623 284.967712,751.361877 
	C284.689178,752.413513 284.058441,753.371887 283.000549,755.643677 
	C281.942749,752.944275 281.162537,751.414917 280.734222,749.792664 
	C270.611725,711.452820 260.593750,673.085327 250.399429,634.764648 
	C246.845108,621.403870 242.902573,608.145691 239.078796,594.857544 
	C237.051834,587.813599 238.096558,585.064453 244.837967,581.624939 
	C254.475388,576.707825 264.250214,572.059326 273.872070,567.112671 
	C294.313080,556.603882 314.710693,546.010254 335.093384,535.388611 
	C355.327698,524.844238 375.452148,514.087097 395.747833,503.662750 
	C440.945099,480.448517 486.259338,457.461823 531.449402,434.233582 
	C568.190979,415.347961 604.821533,396.246338 641.500793,377.239441 
	C678.030701,358.309875 714.562378,339.383636 751.083984,320.438080 
	C753.448792,319.211304 755.734070,317.831268 758.382690,316.348755 
z"/>
<path fill="#262222" opacity="1.000000" stroke="none" 
	d="
M340.678131,719.679443 
	C326.635132,731.346619 312.868195,742.787781 299.101257,754.228943 
	C298.679413,753.947083 298.257568,753.665161 297.835693,753.383301 
	C298.236084,751.720520 298.568573,750.037964 299.046844,748.397888 
	C307.999573,717.697327 317.082001,687.033936 325.886719,656.291016 
	C330.020844,641.856018 330.165924,641.839722 344.977051,643.415222 
	C368.153198,645.880432 391.383362,647.837708 414.589569,650.021423 
	C416.037750,650.157715 417.476654,650.392334 419.441284,651.427185 
	C394.439911,675.556763 366.821350,696.508728 340.678131,719.679443 
z"/>
<path fill="#262222" opacity="1.000000" stroke="none" 
	d="
M888.512451,250.502411 
	C888.509521,250.485672 888.515442,250.519165 888.512451,250.502411 
z"/>
</svg>