<svg version="1.1" id="Layer_1" xmlns="http://www.w3.org/2000/svg" xmlns:xlink="http://www.w3.org/1999/xlink" x="0px" y="0px"
	 width="100%" viewBox="0 0 1024 1024" enable-background="new 0 0 1024 1024" xml:space="preserve">
<path fill="none" opacity="1.000000" stroke="none" 
	d="
M647.000000,1025.000000 
	C431.333344,1025.000000 216.166672,1025.000000 1.000000,1025.000000 
	C1.00₀,683.666687 1.₀,342.333344 1.₀,1.₀ 
	C342.333344,1.₀ 683.666687,1.₀ 1₀25.₀,1.₀ 
	C1025.000000,342.333344 1025.000000,683.666687 1025.000000,1025.000000 
	C899.166687,1025.000000 773.333313,1025.000000 647.000000,1025.000000 
M743.496155,513.000549 
	C748.687866,507.164551 753.910522,501.355682 759.065796,495.487732 
	C777.931946,474.013367 796.864868,452.596741 815.602966,431.011139 
	C834.243469,409.537964 852.613281,387.829987 871.223511,366.330414 
	C891.575134,342.819122 911.873962,319.257294 932.554993,296.037445 
	C950.462891,275.931030 968.874451,256.273254 987.060791,236.414795 
	C990.748779,232.387711 990.876831,227.394485 987.425659,222.789017 
	C983.855530,218.024796 980.385803,217.314285 974.850647,220.128815 
	C973.376038,220.878616 971.835449,221.518600 970.280701,222.087357 
	C959.975159,225.857269 949.589111,229.417633 939.358765,233.380447 
	C921.218994,240.407013 903.221802,247.802292 885.070129,254.797546 
	C868.639343,261.129639 852.085266,267.141876 835.579956,273.280426 
	C814.836060,280.995422 794.108093,288.753693 773.332520,296.382629 
	C757.874817,302.058777 742.315918,307.459961 726.869385,313.165894 
	C711.744263,318.753021 696.723877,324.622955 681.620728,330.270416 
	C669.939148,334.638489 658.165039,338.759918 646.495300,343.158783 
	C623.927979,351.665466 601.413330,360.311493 578.861511,368.859558 
	C561.759216,375.342041 544.615662,381.715820 527.522217,388.221497 
	C504.195587,397.099548 480.921478,406.115936 457.582153,414.960327 
	C440.939148,421.267181 424.210663,427.348022 407.547333,433.601776 
	C378.733429,444.415680 349.941132,455.287262 321.138550,466.131439 
	C299.179138,474.399139 277.193604,482.598145 255.263672,490.943298 
	C229.314270,500.817993 203.427795,510.858002 177.484436,520.748718 
	C157.434631,528.392578 137.323624,535.875793 117.268333,543.505371 
	C95.048622,551.958435 72.862236,560.499023 50.659245,568.996094 
	C44.010685,571.540588 42.702324,575.085327 46.097553,581.221436 
	C46.564129,582.064697 46.974869,583.078186 46.979126,584.014832 
	C47.002605,589.183777 50.452759,590.925354 54.683414,591.602783 
	C64.517754,593.177429 74.367218,594.675903 84.238403,595.997070 
	C94.465508,597.365845 104.750443,598.312683 114.965607,599.758423 
	C133.406158,602.368286 151.792023,605.368591 170.240845,607.915161 
	C189.332870,610.550476 208.469543,612.864319 227.593796,615.262268 
	C231.745209,615.782898 233.883408,617.794006 234.851395,622.058594 
	C239.008728,640.374146 243.436127,658.629395 247.872894,676.880310 
	C254.557739,704.378845 261.118134,731.910583 268.149109,759.321045 
	C272.402557,775.903198 277.454559,792.280212 282.123871,808.756165 
	C282.966980,811.731018 284.760040,811.528870 286.583557,809.957642 
	C292.730927,804.660522 298.611420,799.044373 304.882233,793.901733 
	C325.990326,776.591370 347.237122,759.450195 368.403168,742.210388 
	C386.339783,727.600891 404.213348,712.913879 422.166107,698.324280 
	C428.703247,693.011780 435.366394,687.852844 442.033875,682.703918 
	C442.887207,682.044983 444.148560,681.452454 445.163818,681.534607 
	C459.927002,682.728271 474.727722,683.651672 489.424072,685.428528 
	C507.046906,687.559265 524.565369,690.539307 542.155029,692.963501 
	C552.674500,694.413208 563.221924,695.817505 573.804688,696.544861 
	C576.639465,696.739746 580.458008,695.144958 582.445251,693.057983 
	C593.105530,681.862305 603.409851,670.322571 613.685974,658.767273 
	C628.927185,641.628967 643.979187,624.322327 659.226807,607.189758 
	C676.249512,588.062561 693.413208,569.060913 710.491943,549.983459 
	C721.354126,537.850098 732.173218,525.678162 743.496155,513.000549 
z"/>
<path fill="#1A1A1A" opacity="1.000000" stroke="none" 
	d="
M743.253906,513.262024 
	C732.173218,525.678162 721.354126,537.850098 710.491943,549.983459 
	C693.413208,569.060913 676.249512,588.062561 659.226807,607.189758 
	C643.979187,624.322327 628.927185,641.628967 613.685974,658.767273 
	C603.409851,670.322571 593.105530,681.862305 582.445251,693.057983 
	C580.458008,695.144958 576.639465,696.739746 573.804688,696.544861 
	C563.221924,695.817505 552.674500,694.413208 542.155029,692.963501 
	C524.565369,690.539307 507.046906,687.559265 489.424072,685.428528 
	C474.727722,683.651672 459.927002,682.728271 445.163818,681.534607 
	C444.148560,681.452454 442.887207,682.044983 442.033875,682.703918 
	C435.366394,687.852844 428.703247,693.011780 422.166107,698.324280 
	C404.213348,712.913879 386.339783,727.600891 368.403168,742.210388 
	C347.237122,759.450195 325.990326,776.591370 304.882233,793.901733 
	C298.611420,799.044373 292.730927,804.660522 286.583557,809.957642 
	C284.760040,811.528870 282.966980,811.731018 282.123871,808.756165 
	C277.454559,792.280212 272.402557,775.903198 268.149109,759.321045 
	C261.118134,731.910583 254.557739,704.378845 247.872894,676.880310 
	C243.436127,658.629395 239.008728,640.374146 234.851395,622.058594 
	C233.883408,617.794006 231.745209,615.782898 227.593796,615.262268 
	C208.469543,612.864319 189.332870,610.550476 170.240845,607.915161 
	C151.792023,605.368591 133.406158,602.368286 114.965607,599.758423 
	C104.750443,598.312683 94.465508,597.365845 84.238403,595.997070 
	C74.367218,594.675903 64.517754,593.177429 54.683414,591.602783 
	C50.452759,590.925354 47.002605,589.183777 46.979126,584.014832 
	C46.974869,583.078186 46.564129,582.064697 46.097553,581.221436 
	C42.702324,575.085327 44.010685,571.540588 50.659245,568.996094 
	C72.862236,560.499023 95.048622,551.958435 117.268333,543.505371 
	C137.323624,535.875793 157.434631,528.392578 177.484436,520.748718 
	C203.427795,510.858002 229.314270,500.817993 255.263672,490.943298 
	C277.193604,482.598145 299.179138,474.399139 321.138550,466.131439 
	C349.941132,455.287262 378.733429,444.415680 407.547333,433.601776 
	C424.210663,427.348022 440.939148,421.267181 457.582153,414.960327 
	C480.921478,406.115936 504.195587,397.099548 527.522217,388.221497 
	C544.615662,381.715820 561.759216,375.342041 578.861511,368.859558 
	C601.413330,360.311493 623.927979,351.665466 646.495300,343.158783 
	C658.165039,338.759918 669.939148,334.638489 681.620728,330.270416 
	C696.723877,324.622955 711.744263,318.753021 726.869385,313.165894 
	C742.315918,307.459961 757.874817,302.058777 773.332520,296.382629 
	C794.108093,288.753693 814.836060,280.995422 835.579956,273.280426 
	C852.085266,267.141876 868.639343,261.129639 885.070129,254.797546 
	C903.221802,247.802292 921.218994,240.407013 939.358765,233.380447 
	C949.589111,229.417633 959.975159,225.857269 970.280701,222.087357 
	C971.835449,221.518600 973.376038,220.878616 974.850647,220.128815 
	C980.385803,217.314285 983.855530,218.024796 987.425659,222.789017 
	C990.876831,227.394485 990.748779,232.387711 987.060791,236.414795 
	C968.874451,256.273254 950.462891,275.931030 932.554993,296.037445 
	C911.873962,319.257294 891.575134,342.819122 871.223511,366.330414 
	C852.613281,387.829987 834.243469,409.537964 815.602966,431.011139 
	C796.864868,452.596741 777.931946,474.013367 759.065796,495.487732 
	C753.910522,501.355682 748.687866,507.164551 743.253906,513.262024 
M878.268250,286.133667 
	C876.399353,286.823059 874.429321,287.318298 872.677002,288.231445 
	C851.430176,299.303497 830.226379,310.458221 808.989746,321.549896 
	C778.722412,337.358246 748.468933,353.193542 718.148193,368.898895 
	C698.490601,379.081024 678.656433,388.923157 659.023987,399.152954 
	C638.943665,409.616150 619.090332,420.515564 598.997253,430.953766 
	C573.293884,444.306458 547.441406,457.371918 521.668701,470.591431 
	C482.390564,490.738312 443.097839,510.857025 403.866547,531.094788 
	C383.144531,541.784363 362.556366,552.733032 341.876709,563.505188 
	C321.492340,574.123535 301.093018,584.713867 280.651611,595.221741 
	C271.177460,600.091858 261.554993,604.672791 252.061142,609.505432 
	C245.032974,613.082947 244.037735,615.699890 246.152115,623.102661 
	C250.178314,637.198975 254.301270,651.271118 258.072845,665.436096 
	C268.061035,702.949036 277.874023,740.508606 287.804108,778.037048 
	C288.212891,779.582092 289.100250,781.000610 290.243988,783.543884 
	C291.209900,781.172668 291.755096,780.163879 292.040375,779.086243 
	C301.844299,742.048523 311.590393,704.995483 321.487000,667.982605 
	C322.099365,665.692444 323.488586,663.321716 325.181641,661.670593 
	C328.385864,658.545654 331.894287,655.654541 335.589813,653.124146 
	C358.680969,637.313538 381.769379,621.495911 405.027649,605.933044 
	C445.720154,578.704529 486.594330,551.747559 527.279114,524.507507 
	C559.937256,502.641541 592.368469,480.436798 625.015259,458.553772 
	C644.109497,445.754913 663.430603,433.294586 682.646851,420.677551 
	C705.060486,405.961029 727.444946,391.199799 749.890747,376.532562 
	C769.677856,363.602631 789.713684,351.044647 809.309937,337.833374 
	C833.055115,321.824982 856.453857,305.302734 880.604919,288.680176 
	C883.983582,286.425415 887.362244,284.170685 890.740906,281.915924 
	C890.381348,281.357239 890.021729,280.798553 889.662109,280.239868 
	C886.108093,282.158844 882.554016,284.077820 878.268250,286.133667 
M459.503113,583.002014 
	C421.814392,608.149658 384.125671,633.297363 345.540741,659.043091 
	C347.837097,659.567261 348.911682,659.926575 350.012482,660.047241 
	C380.948700,663.437744 411.855713,667.137268 442.833679,670.093201 
	C485.064148,674.122986 527.346436,677.612366 569.613770,681.249329 
	C574.913696,681.705444 579.328552,680.563354 583.146362,675.791992 
	C591.977112,664.755493 601.536804,654.299988 610.856812,643.657837 
	C624.231567,628.385864 637.751038,613.239685 651.033813,597.888428 
	C665.626709,581.023071 679.987976,563.957581 694.511719,547.032166 
	C708.383545,530.866394 722.300415,514.738953 736.260010,498.648834 
	C750.764465,481.930511 765.293884,465.233185 779.906311,448.609253 
	C791.332031,435.610748 802.881775,422.720917 814.411865,409.814514 
	C827.935852,394.676392 841.477356,379.553772 855.050842,364.460052 
	C865.510498,352.828857 876.183105,341.385681 886.487427,329.619263 
	C900.191650,313.970642 913.638855,298.096710 927.177979,282.303772 
	C931.864014,276.837616 936.494934,271.324188 941.151001,265.832336 
	C940.828430,265.464844 940.505859,265.097382 940.183228,264.729889 
	C935.173218,268.121857 930.220825,271.602783 925.143921,274.891571 
	C886.143921,300.155457 846.873535,325.011627 808.175232,350.728821 
	C772.528015,374.418396 737.641785,399.250031 702.138428,423.159912 
	C662.760986,449.678864 623.140259,475.839020 583.485046,501.942200 
	C542.442688,528.958557 501.232025,555.719055 459.503113,583.002014 
M713.324585,356.843567 
	C740.014343,342.824524 766.684998,328.768982 793.400574,314.799255 
	C811.409912,305.382080 829.506104,296.130768 847.515381,286.713287 
	C854.421265,283.102081 861.193604,279.235382 868.026794,275.485077 
	C867.904846,275.314148 867.782959,275.143188 867.661011,274.972260 
	C597.512451,376.405670 327.363800,477.839081 56.206055,579.651428 
	C58.389412,580.239563 59.705421,580.759888 61.065899,580.935425 
	C79.229637,583.278259 97.398621,585.580627 115.568192,587.878052 
	C158.182404,593.266357 200.795441,598.664062 243.420441,603.965820 
	C245.108856,604.175842 247.146255,603.875732 248.631439,603.083191 
	C274.491547,589.283264 300.227509,575.250183 326.116730,561.505432 
	C373.192505,536.512634 420.361481,511.695374 467.472168,486.768219 
	C501.039886,469.006897 534.553894,451.144073 568.131104,433.400818 
	C616.287476,407.953522 664.479492,382.573853 713.324585,356.843567 
M335.982697,757.484375 
	C361.640411,736.000732 387.341125,714.568054 412.916901,692.987366 
	C417.624512,689.015198 421.825623,684.442688 426.260498,680.147278 
	C425.985870,679.682251 425.711243,679.217285 425.436615,678.752258 
	C424.035645,678.505981 422.643982,678.163330 421.232361,678.027588 
	C397.535339,675.748169 373.823639,673.614136 350.141907,671.186951 
	C337.609985,669.902588 337.015350,670.085510 333.496887,682.241089 
	C333.450562,682.401062 333.406525,682.561768 333.359955,682.721680 
	C325.818542,708.625549 318.268951,734.527100 310.740723,760.434753 
	C308.721313,767.384338 306.766785,774.352844 304.782471,781.312622 
	C305.186951,781.605164 305.591461,781.897705 305.995972,782.190186 
	C315.817017,774.115479 325.638062,766.040771 335.982697,757.484375 
z"/>
<path fill="#373131" opacity="1.000000" stroke="none" 
	d="
M459.799042,582.796753 
	C501.232025,555.719055 542.442688,528.958557 583.485046,501.942200 
	C623.140259,475.839020 662.760986,449.678864 702.138428,423.159912 
	C737.641785,399.250031 772.528015,374.418396 808.175232,350.728821 
	C846.873535,325.011627 886.143921,300.155457 925.143921,274.891571 
	C930.220825,271.602783 935.173218,268.121857 940.183228,264.729889 
	C940.505859,265.097382 940.828430,265.464844 941.151001,265.832336 
	C936.494934,271.324188 931.864014,276.837616 927.177979,282.303772 
	C913.638855,298.096710 900.191650,313.970642 886.487427,329.619263 
	C876.183105,341.385681 865.510498,352.828857 855.050842,364.460052 
	C841.477356,379.553772 827.935852,394.676392 814.411865,409.814514 
	C802.881775,422.720917 791.332031,435.610748 779.906311,448.609253 
	C765.293884,465.233185 750.764465,481.930511 736.260010,498.648834 
	C722.300415,514.738953 708.383545,530.866394 694.511719,547.032166 
	C679.987976,563.957581 665.626709,581.023071 651.033813,597.888428 
	C637.751038,613.239685 624.231567,628.385864 610.856812,643.657837 
	C601.536804,654.299988 591.977112,664.755493 583.146362,675.791992 
	C579.328552,680.563354 574.913696,681.705444 569.613770,681.249329 
	C527.346436,677.612366 485.064148,674.122986 442.833679,670.093201 
	C411.855713,667.137268 380.948700,663.437744 350.012482,660.047241 
	C348.911682,659.926575 347.837097,659.567261 345.540741,659.043091 
	C384.125671,633.297363 421.814392,608.149658 459.799042,582.796753 
z"/>
<path fill="#373131" opacity="1.000000" stroke="none" 
	d="
M712.990417,357.004425 
	C664.479492,382.573853 616.287476,407.953522 568.131104,433.400818 
	C534.553894,451.144073 501.039886,469.006897 467.472168,486.768219 
	C420.361481,511.695374 373.192505,536.512634 326.116730,561.505432 
	C300.227509,575.250183 274.491547,589.283264 248.631439,603.083191 
	C247.146255,603.875732 245.108856,604.175842 243.420441,603.965820 
	C200.795441,598.664062 158.182404,593.266357 115.568192,587.878052 
	C97.398621,585.580627 79.229637,583.278259 61.065899,580.935425 
	C59.705421,580.759888 58.389412,580.239563 56.206055,579.651428 
	C327.363800,477.839081 597.512451,376.405670 867.661011,274.972260 
	C867.782959,275.143188 867.904846,275.314148 868.026794,275.485077 
	C861.193604,279.235382 854.421265,283.102081 847.515381,286.713287 
	C829.506104,296.130768 811.409912,305.382080 793.400574,314.799255 
	C766.684998,328.768982 740.014343,342.824524 712.990417,357.004425 
z"/>
<path fill="#211E1E" opacity="1.000000" stroke="none" 
	d="
M880.002441,289.002808 
	C856.453857,305.302734 833.055115,321.824982 809.309937,337.833374 
	C789.713684,351.044647 769.677856,363.602631 749.890747,376.532562 
	C727.444946,391.199799 705.060486,405.961029 682.646851,420.677551 
	C663.430603,433.294586 644.109497,445.754913 625.015259,458.553772 
	C592.368469,480.436798 559.937256,502.641541 527.279114,524.507507 
	C486.594330,551.747559 445.720154,578.704529 405.027649,605.933044 
	C381.769379,621.495911 358.680969,637.313538 335.589813,653.124146 
	C331.894287,655.654541 328.385864,658.545654 325.181641,661.670593 
	C323.488586,663.321716 322.099365,665.692444 321.487000,667.982605 
	C311.590393,704.995483 301.844299,742.048523 292.040375,779.086243 
	C291.755096,780.163879 291.209900,781.172668 290.243988,783.543884 
	C289.100250,781.000610 288.212891,779.582092 287.804108,778.037048 
	C277.874023,740.508606 268.061035,702.949036 258.072845,665.436096 
	C254.301270,651.271118 250.178314,637.198975 246.152115,623.102661 
	C244.037735,615.699890 245.032974,613.082947 252.061142,609.505432 
	C261.554993,604.672791 271.177460,600.091858 280.651611,595.221741 
	C301.093018,584.713867 321.492340,574.123535 341.876709,563.505188 
	C362.556366,552.733032 383.144531,541.784363 403.866547,531.094788 
	C443.097839,510.857025 482.390564,490.738312 521.668701,470.591431 
	C547.441406,457.371918 573.293884,444.306458 598.997253,430.953766 
	C619.090332,420.515564 638.943665,409.616150 659.023987,399.152954 
	C678.656433,388.923157 698.490601,379.081024 718.148193,368.898895 
	C748.468933,353.193542 778.722412,337.358246 808.989746,321.549896 
	C830.226379,310.458221 851.430176,299.303497 872.677002,288.231445 
	C874.429321,287.318298 876.399353,286.823059 878.723633,286.369324 
	C879.453552,287.404236 879.727966,288.203522 880.002441,289.002808 
z"/>
<path fill="#211E1E" opacity="1.000000" stroke="none" 
	d="
M335.720917,757.725220 
	C325.638062,766.040771 315.817017,774.115479 305.995972,782.190186 
	C305.591461,781.897705 305.186951,781.605164 304.782471,781.312622 
	C306.766785,774.352844 308.721313,767.384338 310.740723,760.434753 
	C318.268951,734.527100 325.818542,708.625549 333.359955,682.721680 
	C333.406525,682.561768 333.450562,682.401062 333.496887,682.241089 
	C337.015350,670.085510 337.609985,669.902588 350.141907,671.186951 
	C373.823639,673.614136 397.535339,675.748169 421.232361,678.027588 
	C422.643982,678.163330 424.035645,678.505981 425.436615,678.752258 
	C425.711243,679.217285 425.985870,679.682251 426.260498,680.147278 
	C421.825623,684.442688 417.624512,689.015198 412.916901,692.987366 
	C387.341125,714.568054 361.640411,736.000732 335.720917,757.725220 
z"/>
<path fill="#211E1E" opacity="1.000000" stroke="none" 
	d="
M880.303650,288.841492 
	C879.727966,288.203522 879.453552,287.404236 879.089478,286.300873 
	C882.554016,284.077820 886.108093,282.158844 889.662109,280.239868 
	C890.021729,280.798553 890.381348,281.357239 890.740906,281.915924 
	C887.362244,284.170685 883.983582,286.425415 880.303650,288.841492 
z"/>
</svg>