<svg version="1.1" id="Layer_1" xmlns="http://www.w3.org/2000/svg" xmlns:xlink="http://www.w3.org/1999/xlink" x="0px" y="0px"
	 width="100%" viewBox="0 0 1024 1024" enable-background="new 0 0 1024 1024" xml:space="preserve">
<path fill="#none" opacity="1.000000" stroke="none" 
	d="
M678.000000,1025.000000 
	C452.000000,1025.000000 226.500000,1025.000000 1.000000,1025.00₀₀₀₀₀₀
	C1.₀₀₀₀₀₀,683.666687 1.₀₀₀₀₀₀,342.333344 1.₀₀₀₀₀₀,1.₀₀₀₀₀₀
	C342.333344,1.₀₀₀₀₀₀ 683.666687,1.₀₁₁₁₁₁ 1０２５.００００００,1.００００００
	C1025.000000,342.333344 1025.000000,683.666687 1025.000000,1025.000000 
	C909.500000,1025.000000 794.000000,1025.000000 678.000000,1025.000000 
M963.613342,206.118149 
	C954.827209,209.204620 945.954712,212.067764 937.273010,215.424240 
	C919.440247,222.318573 901.762512,229.614166 883.921570,236.486832 
	C867.179626,242.936218 850.311279,249.057678 833.495667,255.315781 
	C813.066467,262.918762 792.653809,270.566895 772.197021,278.094879 
	C756.586243,283.839539 740.888489,289.348297 725.283325,295.107819 
	C709.997070,300.749634 694.794495,306.617554 679.525818,312.307617 
	C667.832581,316.665253 656.059509,320.809448 644.382568,325.209473 
	C621.815186,333.713196 599.297180,342.347961 576.746155,350.895050 
	C559.640137,357.378387 542.497253,363.764893 525.401794,370.275635 
	C502.233429,379.099182 479.118378,388.062958 455.935303,396.847412 
	C439.137207,403.212494 422.250549,409.343445 405.430359,415.650848 
	C376.458740,426.514984 347.501770,437.418365 318.550720,448.337280 
	C295.975220,456.851654 273.413177,465.401672 250.854446,473.960358 
	C234.992432,479.978363 219.164597,486.086945 203.286804,492.062805 
	C189.913208,497.096222 176.455353,501.906555 163.096878,506.979065 
	C146.768250,513.179443 130.513153,519.573120 114.210381,525.841980 
	C92.021469,534.374207 69.766861,542.740479 47.690746,551.554443 
	C45.214134,552.543274 42.802525,555.674622 41.931805,558.328003 
	C39.499615,565.739685 44.170055,572.155334 52.735214,573.603577 
	C62.553650,575.263672 72.417046,576.680847 82.287933,578.001404 
	C92.514771,579.369629 102.798752,580.320618 113.013618,581.765808 
	C131.453506,584.374695 149.839172,587.370422 168.287186,589.917175 
	C187.378433,592.552673 206.513519,594.873108 225.637314,597.268616 
	C229.815063,597.791870 231.895325,599.862854 232.858459,604.102539 
	C236.981979,622.254211 241.353027,640.350952 245.775986,658.432922 
	C251.627747,682.356201 257.675568,706.231445 263.520538,730.156311 
	C268.456482,750.360657 273.219269,770.607178 278.068481,790.832642 
	C279.145294,795.323792 280.299622,795.764343 283.968475,792.618286 
	C290.633514,786.902893 296.973267,780.798828 303.759277,775.235718 
	C324.345337,758.359497 345.108429,741.699463 365.748047,724.888245 
	C383.671661,710.289246 401.494873,695.567017 419.416382,680.965454 
	C426.204712,675.434631 433.100403,670.031921 440.061371,664.720520 
	C441.110046,663.920349 442.825195,663.518555 444.163574,663.646790 
	C456.914001,664.868774 469.669373,666.081543 482.385010,667.614685 
	C501.844818,669.961121 521.270447,672.589478 540.718140,675.037903 
	C551.089783,676.343628 561.455627,677.844910 571.872009,678.547119 
	C574.699707,678.737793 578.329041,677.018616 580.499329,675.001831 
	C585.845703,670.033569 590.609680,664.429749 595.515137,658.997742 
	C604.540771,649.003418 613.583435,639.022217 622.466919,628.902039 
	C635.510986,614.041931 648.280151,598.938660 661.428223,584.172058 
	C675.029724,568.896179 688.999512,553.948914 702.705872,538.765564 
	C717.293762,522.605713 731.802368,506.373749 746.267517,490.103882 
	C755.542847,479.671356 764.656128,469.094879 773.880188,458.616547 
	C784.532166,446.516113 795.310852,434.526245 805.878723,422.353119 
	C817.210510,409.300232 828.384766,396.110168 839.584229,382.942902 
	C849.925903,370.784210 860.181580,358.552368 870.527100,346.396973 
	C881.199768,333.857269 891.799316,321.251343 902.680054,308.893829 
	C914.324707,295.668732 926.234558,282.676483 938.076233,269.625702 
	C948.577881,258.051758 959.129944,246.523376 969.689392,235.002029 
	C974.857666,229.362946 980.130676,223.819672 985.285645,218.168564 
	C988.878235,214.230179 988.797974,209.089249 985.227234,204.521881 
	C981.727051,200.044800 978.306641,199.414948 972.994324,202.039490 
	C970.170044,203.434860 967.213989,204.563278 963.613342,206.118149 
z"/>
<path fill="#1A1A1A" opacity="1.000000" stroke="none" 
	d="
M963.965332,205.965164 
	C967.213989,204.563278 970.170044,203.434860 972.994324,202.039490 
	C978.306641,199.414948 981.727051,200.044800 985.227234,204.521881 
	C988.797974,209.089249 988.878235,214.230179 985.285645,218.168564 
	C980.130676,223.819672 974.857666,229.362946 969.689392,235.002029 
	C959.129944,246.523376 948.577881,258.051758 938.076233,269.625702 
	C926.234558,282.676483 914.324707,295.668732 902.680054,308.893829 
	C891.799316,321.251343 881.199768,333.857269 870.527100,346.396973 
	C860.181580,358.552368 849.925903,370.784210 839.584229,382.942902 
	C828.384766,396.110168 817.210510,409.300232 805.878723,422.353119 
	C795.310852,434.526245 784.532166,446.516113 773.880188,458.616547 
	C764.656128,469.094879 755.542847,479.671356 746.267517,490.103882 
	C731.802368,506.373749 717.293762,522.605713 702.705872,538.765564 
	C688.999512,553.948914 675.029724,568.896179 661.428223,584.172058 
	C648.280151,598.938660 635.510986,614.041931 622.466919,628.902039 
	C613.583435,639.022217 604.540771,649.003418 595.515137,658.997742 
	C590.609680,664.429749 585.845703,670.033569 580.499329,675.001831 
	C578.329041,677.018616 574.699707,678.737793 571.872009,678.547119 
	C561.455627,677.844910 551.089783,676.343628 540.718140,675.037903 
	C521.270447,672.589478 501.844818,669.961121 482.385010,667.614685 
	C469.669373,666.081543 456.914001,664.868774 444.163574,663.646790 
	C442.825195,663.518555 441.110046,663.920349 440.061371,664.720520 
	C433.100403,670.031921 426.204712,675.434631 419.416382,680.965454 
	C401.494873,695.567017 383.671661,710.289246 365.748047,724.888245 
	C345.108429,741.699463 324.345337,758.359497 303.759277,775.235718 
	C296.973267,780.798828 290.633514,786.902893 283.968475,792.618286 
	C280.299622,795.764343 279.145294,795.323792 278.068481,790.832642 
	C273.219269,770.607178 268.456482,750.360657 263.520538,730.156311 
	C257.675568,706.231445 251.627747,682.356201 245.775986,658.432922 
	C241.353027,640.350952 236.981979,622.254211 232.858459,604.102539 
	C231.895325,599.862854 229.815063,597.791870 225.637314,597.268616 
	C206.513519,594.873108 187.378433,592.552673 168.287186,589.917175 
	C149.839172,587.370422 131.453506,584.374695 113.013618,581.765808 
	C102.798752,580.320618 92.514771,579.369629 82.287933,578.001404 
	C72.417046,576.680847 62.553650,575.263672 52.735214,573.603577 
	C44.170055,572.155334 39.499615,565.739685 41.931805,558.328003 
	C42.802525,555.674622 45.214134,552.543274 47.690746,551.554443 
	C69.766861,542.740479 92.021469,534.374207 114.210381,525.841980 
	C130.513153,519.573120 146.768250,513.179443 163.096878,506.979065 
	C176.455353,501.906555 189.913208,497.096222 203.286804,492.062805 
	C219.164597,486.086945 234.992432,479.978363 250.854446,473.960358 
	C273.413177,465.401672 295.975220,456.851654 318.550720,448.337280 
	C347.501770,437.418365 376.458740,426.514984 405.430359,415.650848 
	C422.250549,409.343445 439.137207,403.212494 455.935303,396.847412 
	C479.118378,388.062958 502.233429,379.099182 525.401794,370.275635 
	C542.497253,363.764893 559.640137,357.378387 576.746155,350.895050 
	C599.297180,342.347961 621.815186,333.713196 644.382568,325.209473 
	C656.059509,320.809448 667.832581,316.665253 679.525818,312.307617 
	C694.794495,306.617554 709.997070,300.749634 725.283325,295.107819 
	C740.888489,289.348297 756.586243,283.839539 772.197021,278.094879 
	C792.653809,270.566895 813.066467,262.918762 833.495667,255.315781 
	C850.311279,249.057678 867.179626,242.936218 883.921570,236.486832 
	C901.762512,229.614166 919.440247,222.318573 937.273010,215.424240 
	C945.954712,212.067764 954.827209,209.204620 963.965332,205.965164 
M889.209473,262.038330 
	C882.371826,265.072662 875.344421,267.744019 868.727905,271.201447 
	C831.838928,290.477570 795.104858,310.050232 758.207825,329.310822 
	C730.608704,343.717804 702.793091,357.709473 675.165344,372.062164 
	C643.252502,388.640991 611.521729,405.571564 579.562622,422.059906 
	C542.420593,441.222168 505.117340,460.071838 467.882080,479.053375 
	C462.395752,481.850098 456.876526,484.583099 451.410309,487.418365 
	C430.572174,498.226929 409.735992,509.039368 388.924988,519.899963 
	C368.273346,530.677368 347.672150,541.551575 327.012421,552.313416 
	C311.364868,560.464355 295.687775,568.559753 279.970886,576.576111 
	C269.601349,581.864868 259.093384,586.882812 248.734207,592.191406 
	C243.122101,595.067200 242.104263,598.068542 243.817719,603.960083 
	C247.583008,616.906616 251.457047,629.826599 254.922867,642.854187 
	C265.323120,681.947510 275.541229,721.089233 285.870148,760.201599 
	C286.284027,761.768799 287.102753,763.229187 288.113525,765.651733 
	C289.075562,763.818481 289.596161,763.153564 289.793396,762.403625 
	C299.655334,724.902832 309.455750,687.385803 319.409424,649.909485 
	C320.015869,647.626160 321.473602,645.328247 323.135864,643.622437 
	C325.664917,641.027039 328.559692,638.705811 331.575470,636.679443 
	C375.503967,607.161377 419.498108,577.741028 463.434662,548.234985 
	C489.826477,530.511230 516.156006,512.694641 542.494263,494.891266 
	C568.975647,476.991150 595.318115,458.882874 621.930237,441.179596 
	C655.331299,418.960175 688.871765,396.947906 722.491760,375.060852 
	C745.647339,359.986237 769.253418,345.597107 792.266602,330.312012 
	C814.998962,315.213409 837.253296,299.394196 859.688843,283.850037 
	C869.935669,276.750641 880.114136,269.552582 890.735107,262.229095 
	C891.250793,261.913696 891.766418,261.598297 892.282104,261.282898 
	C892.160522,261.108276 892.038940,260.933655 891.917358,260.759033 
	C891.259583,261.146484 890.601868,261.533966 889.209473,262.038330 
M423.236755,663.257874 
	C425.495026,660.741028 423.827942,660.248718 421.585297,660.064636 
	C413.134644,659.370789 404.675720,658.765198 396.234589,657.970520 
	C380.675598,656.505798 365.084595,655.265686 349.586823,653.301453 
	C335.817688,651.556335 334.901428,652.006104 331.069519,665.490601 
	C323.880829,690.787476 316.419922,716.006958 309.086426,741.262817 
	C306.929413,748.691284 304.820312,756.133667 302.560913,764.017395 
	C303.782166,763.753479 304.361237,763.798889 304.686188,763.533325 
	C314.474487,755.534119 324.315155,747.596252 333.987762,739.458740 
	C350.785767,725.326721 367.502350,711.097351 384.205750,696.853333 
	C397.110016,685.849060 409.941864,674.759827 423.236755,663.257874 
z"/>
<path fill="#413B3B" opacity="1.000000" stroke="none" 
	d="
M890.323608,262.399231 
	C880.114136,269.552582 869.935669,276.750641 859.688843,283.850037 
	C837.253296,299.394196 814.998962,315.213409 792.266602,330.312012 
	C769.253418,345.597107 745.647339,359.986237 722.491760,375.060852 
	C688.871765,396.947906 655.331299,418.960175 621.930237,441.179596 
	C595.318115,458.882874 568.975647,476.991150 542.494263,494.891266 
	C516.156006,512.694641 489.826477,530.511230 463.434662,548.234985 
	C419.498108,577.741028 375.503967,607.161377 331.575470,636.679443 
	C328.559692,638.705811 325.664917,641.027039 323.135864,643.622437 
	C321.473602,645.328247 320.015869,647.626160 319.409424,649.909485 
	C309.455750,687.385803 299.655334,724.902832 289.793396,762.403625 
	C289.596161,763.153564 289.075562,763.818481 288.113525,765.651733 
	C287.102753,763.229187 286.284027,761.768799 285.870148,760.201599 
	C275.541229,721.089233 265.323120,681.947510 254.922867,642.854187 
	C251.457047,629.826599 247.583008,616.906616 243.817719,603.960083 
	C242.104263,598.068542 243.122101,595.067200 248.734207,592.191406 
	C259.093384,586.882812 269.601349,581.864868 279.970886,576.576111 
	C295.687775,568.559753 311.364868,560.464355 327.012421,552.313416 
	C347.672150,541.551575 368.273346,530.677368 388.924988,519.899963 
	C409.735992,509.039368 430.572174,498.226929 451.410309,487.418365 
	C456.876526,484.583099 462.395752,481.850098 467.882080,479.053375 
	C505.117340,460.071838 542.420593,441.222168 579.562622,422.059906 
	C611.521729,405.571564 643.252502,388.640991 675.165344,372.062164 
	C702.793091,357.709473 730.608704,343.717804 758.207825,329.310822 
	C795.104858,310.050232 831.838928,290.477570 868.727905,271.201447 
	C875.344421,267.744019 882.371826,265.072662 889.671875,262.099182 
	C890.134216,262.160065 890.323608,262.399231 890.323608,262.399231 
z"/>
<path fill="#413B3B" opacity="1.000000" stroke="none" 
	d="
M423.021332,663.483154 
	C409.941864,674.759827 397.110016,685.849060 384.205750,696.853333 
	C367.502350,711.097351 350.785767,725.326721 333.987762,739.458740 
	C324.315155,747.596252 314.474487,755.534119 304.686188,763.533325 
	C304.361237,763.798889 303.782166,763.753479 302.560913,764.017395 
	C304.820312,756.133667 306.929413,748.691284 309.086426,741.262817 
	C316.419922,716.006958 323.880829,690.787476 331.069519,665.490601 
	C334.901428,652.006104 335.817688,651.556335 349.586823,653.301453 
	C365.084595,655.265686 380.675598,656.505798 396.234589,657.970520 
	C404.675720,658.765198 413.134644,659.370789 421.585297,660.064636 
	C423.827942,660.248718 425.495026,660.741028 423.021332,663.483154 
z"/>
<path fill="#413B3B" opacity="1.000000" stroke="none" 
	d="
M890.039185,262.040741 
	C890.601868,261.533966 891.259583,261.146484 891.917358,260.759033 
	C892.038940,260.933655 892.160522,261.108276 892.282104,261.282898 
	C891.766418,261.598297 891.250793,261.913696 890.529358,262.314148 
	C890.323608,262.399231 890.134216,262.160065 890.039185,262.040741 
z"/>
</svg>