<svg version="1.1" id="Layer_1" xmlns="http://www.w3.org/2000/svg" xmlns:xlink="http://www.w3.org/1999/xlink" x="0px" y="0px"
	 width="100%" viewBox="0 0 1024 1024" enable-background="new 0 0 1024 1024" xml:space="preserve">
<path fill="none" opacity="1.000000" stroke="none" 
	d="
M644.000000,1025.000000 
	C429.333344,1025.000000 215.166672,1025.000000 1.000000,1025.000000 
	C1.000000,683.666687 1.000000,342.333344 1.000000,1.000000 
	C342.333344,1.000000 683.666687,1.000000 1025.000000,1.000000 
	C1025.000000,342.333344 1025.000000,683.666687 1025.000000,1025.000000 
	C898.166687,1025.000000 771.333313,1025.000000 644.000000,1025.000000 
M965.414734,202.628189 
	C959.462219,204.733505 953.452515,206.691116 947.567505,208.970749 
	C926.462952,217.145813 905.480408,225.641510 884.304260,233.624954 
	C849.288635,246.825912 814.151245,259.703522 779.078430,272.753296 
	C736.812988,288.479248 694.556152,304.228485 652.305908,319.995209 
	C627.696960,329.178650 603.099731,338.393402 578.513306,347.636658 
	C559.981506,354.603668 541.472412,361.631134 522.958069,368.644501 
	C489.812775,381.200195 456.689056,393.813049 423.523315,406.314453 
	C384.440887,421.046112 345.317627,435.669342 306.223114,450.369049 
	C279.151855,460.547943 252.095764,470.767334 225.039215,480.985413 
	C189.078354,494.566284 153.098221,508.096710 117.175934,521.778931 
	C95.408234,530.069885 73.703148,538.528137 52.037388,547.082092 
	C45.690781,549.587830 43.965221,555.799377 47.216431,561.830872 
	C50.265270,567.486816 55.828171,567.546204 61.021130,568.284241 
	C84.040512,571.555542 107.074638,574.723511 130.106873,577.903870 
	C143.444336,579.745605 156.788223,581.541016 170.129456,583.355469 
	C190.226990,586.088867 210.323883,588.826843 230.423172,591.547119 
	C233.786026,592.002197 235.768051,593.761475 236.490326,597.159424 
	C237.767334,603.167114 239.185165,609.145691 240.607971,615.121216 
	C247.731812,645.040771 254.777115,674.979553 262.050385,704.862793 
	C266.534241,723.285339 271.364227,741.623657 276.064697,759.993225 
	C278.001770,767.563354 279.898590,775.147278 282.053986,782.655884 
	C282.619537,784.626160 283.214081,787.797974 286.622620,786.041443 
	C288.966339,784.833740 291.213074,783.302002 293.205383,781.572083 
	C300.709137,775.056702 307.871918,768.132996 315.559174,761.847534 
	C339.205170,742.513062 363.040344,723.410034 386.790100,704.202332 
	C400.871460,692.813965 414.911072,681.373901 429.012482,670.010437 
	C432.634552,667.091553 437.220215,664.975403 439.904572,661.396423 
	C442.595276,657.808899 445.426453,656.989807 449.221863,657.385010 
	C462.778961,658.796814 476.346527,660.132385 489.876953,661.770752 
	C509.840057,664.188049 529.773743,666.848389 549.722107,669.387939 
	C557.296204,670.352112 564.979919,670.789185 572.413391,672.394104 
	C576.560669,673.289490 579.419312,672.875183 582.211060,669.825623 
	C587.378601,664.181030 592.811768,658.776917 597.910522,653.072571 
	C608.656067,641.050720 619.259216,628.901672 629.917053,616.801453 
	C643.982788,600.832092 657.974976,584.797180 672.131958,568.909180 
	C682.195251,557.615356 692.557190,546.588013 702.645630,535.316284 
	C718.610596,517.478760 734.444946,499.524384 750.360596,481.642609 
	C759.427246,471.455872 768.633667,461.392303 777.619141,451.134796 
	C790.106506,436.879578 802.483765,422.527161 814.838196,408.156189 
	C827.737549,393.151215 840.567749,378.086670 853.402832,363.026581 
	C867.531189,346.449066 881.503784,329.736633 895.786865,313.293762 
	C905.489258,302.124359 915.654358,291.358124 925.531494,280.338959 
	C938.847473,265.483276 952.012573,250.491776 965.387451,235.689545 
	C972.300537,228.038666 979.549255,220.691727 986.601257,213.165237 
	C990.044922,209.489838 990.228088,204.328247 987.184998,200.388168 
	C983.933594,196.178253 980.654663,195.817566 975.352661,198.601196 
	C972.429504,200.135880 969.229004,201.142075 965.414734,202.628189 
M285.638947,788.483398 
	C285.638947,788.483398 285.455444,788.368469 285.455444,788.368469 
	C285.455444,788.368469 285.473633,788.589722 285.638947,788.483398 
z"/>
<path fill="#38393A" opacity="1.000000" stroke="none" 
	d="
M965.784119,202.507355 
	C969.229004,201.142075 972.429504,200.135880 975.352661,198.601196 
	C980.654663,195.817566 983.933594,196.178253 987.184998,200.388168 
	C990.228088,204.328247 990.044922,209.489838 986.601257,213.165237 
	C979.549255,220.691727 972.300537,228.038666 965.387451,235.689545 
	C952.012573,250.491776 938.847473,265.483276 925.531494,280.338959 
	C915.654358,291.358124 905.489258,302.124359 895.786865,313.293762 
	C881.503784,329.736633 867.531189,346.449066 853.402832,363.026581 
	C840.567749,378.086670 827.737549,393.151215 814.838196,408.156189 
	C802.483765,422.527161 790.106506,436.879578 777.619141,451.134796 
	C768.633667,461.392303 759.427246,471.455872 750.360596,481.642609 
	C734.444946,499.524384 718.610596,517.478760 702.645630,535.316284 
	C692.557190,546.588013 682.195251,557.615356 672.131958,568.909180 
	C657.974976,584.797180 643.982788,600.832092 629.917053,616.801453 
	C619.259216,628.901672 608.656067,641.050720 597.910522,653.072571 
	C592.811768,658.776917 587.378601,664.181030 582.211060,669.825623 
	C579.419312,672.875183 576.560669,673.289490 572.413391,672.394104 
	C564.979919,670.789185 557.296204,670.352112 549.722107,669.387939 
	C529.773743,666.848389 509.840057,664.188049 489.876953,661.770752 
	C476.346527,660.132385 462.778961,658.796814 449.221863,657.385010 
	C445.426453,656.989807 442.595276,657.808899 439.904572,661.396423 
	C437.220215,664.975403 432.634552,667.091553 429.012482,670.010437 
	C414.911072,681.373901 400.871460,692.813965 386.790100,704.202332 
	C363.040344,723.410034 339.205170,742.513062 315.559174,761.847534 
	C307.871918,768.132996 300.709137,775.056702 293.205383,781.572083 
	C291.213074,783.302002 288.966339,784.833740 286.622620,786.041443 
	C283.214081,787.797974 282.619537,784.626160 282.053986,782.655884 
	C279.898590,775.147278 278.001770,767.563354 276.064697,759.993225 
	C271.364227,741.623657 266.534241,723.285339 262.050385,704.862793 
	C254.777115,674.979553 247.731812,645.040771 240.607971,615.121216 
	C239.185165,609.145691 237.767334,603.167114 236.490326,597.159424 
	C235.768051,593.761475 233.786026,592.002197 230.423172,591.547119 
	C210.323883,588.826843 190.226990,586.088867 170.129456,583.355469 
	C156.788223,581.541016 143.444336,579.745605 130.106873,577.903870 
	C107.074638,574.723511 84.040512,571.555542 61.021130,568.284241 
	C55.828171,567.546204 50.265270,567.486816 47.216431,561.830872 
	C43.965221,555.799377 45.690781,549.587830 52.037388,547.082092 
	C73.703148,538.528137 95.408234,530.069885 117.175934,521.778931 
	C153.098221,508.096710 189.078354,494.566284 225.039215,480.985413 
	C252.095764,470.767334 279.151855,460.547943 306.223114,450.369049 
	C345.317627,435.669342 384.440887,421.046112 423.523315,406.314453 
	C456.689056,393.813049 489.812775,381.200195 522.958069,368.644501 
	C541.472412,361.631134 559.981506,354.603668 578.513306,347.636658 
	C603.099731,338.393402 627.696960,329.178650 652.305908,319.995209 
	C694.556152,304.228485 736.812988,288.479248 779.078430,272.753296 
	C814.151245,259.703522 849.288635,246.825912 884.304260,233.624954 
	C905.480408,225.641510 926.462952,217.145813 947.567505,208.970749 
	C953.452515,206.691116 959.462219,204.733505 965.784119,202.507355 
M892.219177,257.053314 
	C885.380371,260.082336 878.350037,262.744965 871.734436,266.201233 
	C834.840149,285.476410 798.100525,305.047821 761.200073,324.311188 
	C733.598206,338.720398 705.784912,352.724396 678.153442,367.077576 
	C646.236389,383.656952 614.496155,400.577698 582.532043,417.065002 
	C545.087891,436.378967 507.485657,455.386414 469.950806,474.524414 
	C464.760406,477.170837 459.542816,479.764557 454.372589,482.449646 
	C433.684906,493.193481 413.014313,503.970184 392.330719,514.721924 
	C376.678955,522.857971 361.011505,530.964050 345.360962,539.102478 
	C324.388184,550.008545 303.453766,560.988831 282.445129,571.825317 
	C272.393890,577.009888 262.168488,581.856201 252.101135,587.010254 
	C245.974945,590.146606 245.061020,592.907532 246.988327,599.573792 
	C250.965195,613.329102 255.032150,627.062866 258.714417,640.898010 
	C268.864594,679.034485 278.829895,717.220154 288.899231,755.378174 
	C289.288300,756.852539 289.996216,758.242798 290.555573,759.672241 
	C291.061798,759.657959 291.568054,759.643677 292.074280,759.629395 
	C292.855011,756.516113 293.600494,753.393555 294.421844,750.291016 
	C303.752258,715.047791 313.055664,679.797302 322.522766,644.590820 
	C323.132172,642.324402 324.677643,640.033142 326.401276,638.401794 
	C329.768707,635.214600 333.382507,632.208435 337.221893,629.611633 
	C368.248627,608.626648 399.311646,587.694702 430.442169,566.864014 
	C462.406372,545.475464 494.533539,524.330017 526.452820,502.874908 
	C559.341187,480.768341 591.940002,458.229706 624.895630,436.224762 
	C658.265747,413.943054 691.842957,391.968719 725.471252,370.077637 
	C748.911743,354.818542 772.814514,340.262360 796.103027,324.778931 
	C820.499390,308.558960 844.435242,291.644806 868.516174,274.952911 
	C876.840332,269.182953 884.995789,263.169617 893.648621,257.138092 
	C894.162781,256.860718 894.676941,256.583313 895.191101,256.305939 
	C895.080505,256.135193 894.969910,255.964417 894.859253,255.793655 
	C894.223938,256.173187 893.588562,256.552734 892.219177,257.053314 
M410.462311,654.009094 
	C390.112152,652.015625 369.764038,650.001404 349.411072,648.037048 
	C338.408508,646.975159 338.282074,647.096863 334.911743,657.855408 
	C334.812195,658.173157 334.705261,658.488708 334.611847,658.808289 
	C325.227722,690.911682 315.838654,723.013611 306.485809,755.126099 
	C306.155151,756.261414 306.184357,757.501587 306.001740,759.072327 
	C316.650391,753.091614 425.029999,660.614990 427.248077,655.518738 
	C421.874847,655.014282 416.632446,654.522095 410.462311,654.009094 
z"/>
<path fill="#38393A" opacity="1.000000" stroke="none" 
	d="
M285.556274,788.536560 
	C285.473633,788.589722 285.455444,788.368469 285.455444,788.368469 
	C285.455444,788.368469 285.638947,788.483398 285.556274,788.536560 
z"/>
<path fill="#191B1C" opacity="1.000000" stroke="none" 
	d="
M893.228333,257.267517 
	C884.995789,263.169617 876.840332,269.182953 868.516174,274.952911 
	C844.435242,291.644806 820.499390,308.558960 796.103027,324.778931 
	C772.814514,340.262360 748.911743,354.818542 725.471252,370.077637 
	C691.842957,391.968719 658.265747,413.943054 624.895630,436.224762 
	C591.940002,458.229706 559.341187,480.768341 526.452820,502.874908 
	C494.533539,524.330017 462.406372,545.475464 430.442169,566.864014 
	C399.311646,587.694702 368.248627,608.626648 337.221893,629.611633 
	C333.382507,632.208435 329.768707,635.214600 326.401276,638.401794 
	C324.677643,640.033142 323.132172,642.324402 322.522766,644.590820 
	C313.055664,679.797302 303.752258,715.047791 294.421844,750.291016 
	C293.600494,753.393555 292.855011,756.516113 292.074280,759.629395 
	C291.568054,759.643677 291.061798,759.657959 290.555573,759.672241 
	C289.996216,758.242798 289.288300,756.852539 288.899231,755.378174 
	C278.829895,717.220154 268.864594,679.034485 258.714417,640.898010 
	C255.032150,627.062866 250.965195,613.329102 246.988327,599.573792 
	C245.061020,592.907532 245.974945,590.146606 252.101135,587.010254 
	C262.168488,581.856201 272.393890,577.009888 282.445129,571.825317 
	C303.453766,560.988831 324.388184,550.008545 345.360962,539.102478 
	C361.011505,530.964050 376.678955,522.857971 392.330719,514.721924 
	C413.014313,503.970184 433.684906,493.193481 454.372589,482.449646 
	C459.542816,479.764557 464.760406,477.170837 469.950806,474.524414 
	C507.485657,455.386414 545.087891,436.378967 582.532043,417.065002 
	C614.496155,400.577698 646.236389,383.656952 678.153442,367.077576 
	C705.784912,352.724396 733.598206,338.720398 761.200073,324.311188 
	C798.100525,305.047821 834.840149,285.476410 871.734436,266.201233 
	C878.350037,262.744965 885.380371,260.082336 892.655273,257.076416 
	C893.091309,257.099548 893.228333,257.267517 893.228333,257.267517 
z"/>
<path fill="#191B1C" opacity="1.000000" stroke="none" 
	d="
M410.926208,654.019531 
	C416.632446,654.522095 421.874847,655.014282 427.248077,655.518738 
	C425.029999,660.614990 316.650391,753.091614 306.001740,759.072327 
	C306.184357,757.501587 306.155151,756.261414 306.485809,755.126099 
	C315.838654,723.013611 325.227722,690.911682 334.611847,658.808289 
	C334.705261,658.488708 334.812195,658.173157 334.911743,657.855408 
	C338.282074,647.096863 338.408508,646.975159 349.411072,648.037048 
	C369.764038,650.001404 390.112152,652.015625 410.926208,654.019531 
z"/>
<path fill="#191B1C" opacity="1.000000" stroke="none" 
	d="
M893.022278,257.015930 
	C893.588562,256.552734 894.223938,256.173187 894.859253,255.793655 
	C894.969910,255.964417 895.080505,256.135193 895.191101,256.305939 
	C894.676941,256.583313 894.162781,256.860718 893.438477,257.202820 
	C893.228333,257.267517 893.091309,257.099548 893.022278,257.015930 
z"/>
</svg>