<svg version="1.1" id="Layer_1" xmlns="http://www.w3.org/2000/svg" xmlns:xlink="http://www.w3.org/1999/xlink" x="0px" y="0px"
	 width="100%" viewBox="0 0 1024 1024" enable-background="new 0 0 1024 1024" xml:space="preserve">
<path fill="none" opacity="1.000000" stroke="none" 
	d="
M703.000000,1025.000000 
	C468.666656,1025.000000 234.833328,1025.000000 1.000000,1025.000000 
	C1.000000,683.666687 1.000000,342.333344 1.000000,1.000000 
	C342.333344,1.000000 683.666687,1.000000 1025.000000,1.000000 
	C1025.000000,342.333344 1025.000000,683.666687 1025.000000,1025.000000 
	C917.833313,1025.000000 810.666687,1025.000000 703.000000,1025.000000 
M944.406860,224.063477 
	C947.495178,221.014481 950.715759,218.086929 953.647949,214.894424 
	C963.864014,203.771210 973.893005,192.475327 984.167908,181.407303 
	C990.142334,174.971741 990.522949,172.466400 985.555115,165.074860 
	C982.682007,160.800003 976.955139,159.658585 972.567688,162.011719 
	C967.288452,164.843109 961.939026,167.658737 956.354492,169.783310 
	C941.655457,175.375275 926.743469,180.407349 912.047424,186.006790 
	C898.385864,191.212128 884.926514,196.945938 871.312805,202.280289 
	C864.479248,204.957977 857.475342,207.197433 850.592529,209.753677 
	C837.046448,214.784668 823.551758,219.954300 809.997620,224.963303 
	C794.473694,230.700211 778.901245,236.305542 763.363037,242.003998 
	C748.000977,247.637863 732.625305,253.237000 717.311035,258.998474 
	C702.604919,264.531128 688.018127,270.382538 673.287964,275.848938 
	C661.867126,280.087280 650.284607,283.887878 638.813599,287.993774 
	C627.547668,292.026306 616.277527,296.057556 605.107727,300.345856 
	C591.898682,305.417084 578.833313,310.861755 565.637695,315.968903 
	C540.526733,325.687683 515.375916,335.303772 490.224030,344.916473 
	C480.404388,348.669342 470.560150,352.360687 460.685974,355.967377 
	C448.056488,360.580505 435.341187,364.961517 422.748688,369.671967 
	C415.056580,372.549286 407.613708,376.098297 399.902618,378.918213 
	C386.926270,383.663574 373.782501,387.949890 360.791260,392.655975 
	C350.922394,396.230988 341.168243,400.125214 331.386108,403.936523 
	C318.693817,408.881714 306.049530,413.950806 293.337067,418.843140 
	C283.425415,422.657623 273.413208,426.210632 263.497040,430.013763 
	C253.409576,433.882629 243.405960,437.969910 233.326797,441.860931 
	C223.560593,445.631134 213.780106,449.369843 203.942322,452.947693 
	C191.289230,457.549469 178.506180,461.799286 165.899368,466.521790 
	C147.397171,473.452637 129.007950,480.684723 110.558495,487.756897 
	C94.999229,493.721191 79.419395,499.631775 63.855553,505.584167 
	C57.874680,507.871521 51.879173,510.127594 45.966961,512.582458 
	C44.557652,513.167664 43.280155,514.337341 42.244671,515.506287 
	C38.955387,519.219543 39.182194,523.842346 40.550987,527.929749 
	C42.271206,533.066650 47.222580,534.389893 52.121422,535.028320 
	C62.722950,536.410034 73.357559,537.554199 83.937683,539.079590 
	C96.573715,540.901306 109.142197,543.197205 121.785408,544.961914 
	C135.256134,546.842102 148.796539,548.219177 162.276031,550.041382 
	C175.891296,551.881836 189.454010,554.111145 203.069778,555.947632 
	C210.015991,556.884460 217.057175,557.127319 223.995193,558.109497 
	C226.571426,558.474243 230.118103,559.379089 231.211243,561.227112 
	C233.250290,564.674316 234.049057,568.940308 234.949310,572.958374 
	C236.876373,581.559753 238.359253,590.262024 240.349045,598.847656 
	C244.103485,615.047363 247.967651,631.223938 252.012421,647.353455 
	C255.500275,661.262085 259.400391,675.067078 262.929688,688.965759 
	C265.137085,697.658691 266.671631,706.530884 269.089966,715.159668 
	C272.282074,726.549316 276.007050,737.791077 279.593964,749.067505 
	C280.284882,751.239685 281.394836,753.278625 282.539642,755.901855 
	C288.093536,751.456543 293.058441,747.809082 297.645569,743.736145 
	C304.879028,737.313477 311.769318,730.505005 318.980835,724.056641 
	C322.996094,720.466370 327.393890,717.306763 331.572510,713.895874 
	C338.915894,707.901550 346.183624,701.814026 353.557922,695.858398 
	C359.993835,690.660583 366.515411,685.568237 373.031433,680.470520 
	C378.832092,675.932495 384.721771,671.507385 390.489624,666.928467 
	C396.089752,662.482849 401.576019,657.894043 407.128448,653.388062 
	C414.096466,647.733337 421.234528,642.275513 428.003937,636.392883 
	C432.448975,632.530151 439.500244,631.282776 440.377045,623.965149 
	C441.646179,624.404602 442.513519,624.885010 443.425018,624.993225 
	C454.919067,626.358154 466.414307,627.718140 477.923798,628.942322 
	C479.658661,629.126831 481.467163,628.609497 483.242554,628.426025 
	C484.529053,628.293091 485.860352,627.901855 487.097076,628.097473 
	C492.625275,628.972168 498.098755,630.234314 503.644653,630.946106 
	C511.261230,631.923706 518.948730,632.350891 526.563477,633.339783 
	C537.321960,634.737000 548.048035,636.390625 558.774780,638.021240 
	C562.734802,638.623169 566.908264,638.866394 570.529358,640.369446 
	C574.466125,642.003479 577.653198,640.526611 579.817810,638.398926 
	C585.887512,632.432739 591.322571,625.822266 597.030090,619.485840 
	C600.144470,616.028259 603.406494,612.698730 606.423401,609.159302 
	C615.742920,598.225769 624.784302,587.049194 634.294250,576.285583 
	C645.335510,563.788818 656.835266,551.698486 667.992859,539.302856 
	C677.748230,528.465088 687.259399,517.408081 696.967102,506.526886 
	C702.570679,500.245819 708.406555,494.172394 714.034729,487.912720 
	C720.384033,480.851013 726.541199,473.615784 732.925476,466.586365 
	C738.156799,460.826355 743.759094,455.399353 748.910767,449.571686 
	C757.219055,440.173126 765.193054,430.479095 773.494690,421.074432 
	C780.460876,413.182709 787.881409,405.688599 794.764465,397.727692 
	C805.528198,385.278473 815.957825,372.541107 826.623901,360.006561 
	C835.076050,350.073669 843.771912,340.347260 852.175537,330.374115 
	C862.008606,318.704681 871.487976,306.735199 881.408569,295.142151 
	C890.075745,285.013916 899.131409,275.217651 908.035339,265.292603 
	C916.174133,256.220398 924.369263,247.198471 932.480774,238.101944 
	C936.407471,233.698456 940.199524,229.174820 944.406860,224.063477 
z"/>
<path fill="#B9D3E5" opacity="1.000000" stroke="none" 
	d="
M944.229736,224.384521 
	C940.199524,229.174820 936.407471,233.698456 932.480774,238.101944 
	C924.369263,247.198471 916.174133,256.220398 908.035339,265.292603 
	C899.131409,275.217651 890.075745,285.013916 881.408569,295.142151 
	C871.487976,306.735199 862.008606,318.704681 852.175537,330.374115 
	C843.771912,340.347260 835.076050,350.073669 826.623901,360.006561 
	C815.957825,372.541107 805.528198,385.278473 794.764465,397.727692 
	C787.881409,405.688599 780.460876,413.182709 773.494690,421.074432 
	C765.193054,430.479095 757.219055,440.173126 748.910767,449.571686 
	C743.759094,455.399353 738.156799,460.826355 732.925476,466.586365 
	C726.541199,473.615784 720.384033,480.851013 714.034729,487.912720 
	C708.406555,494.172394 702.570679,500.245819 696.967102,506.526886 
	C687.259399,517.408081 677.748230,528.465088 667.992859,539.302856 
	C656.835266,551.698486 645.335510,563.788818 634.294250,576.285583 
	C624.784302,587.049194 615.742920,598.225769 606.423401,609.159302 
	C603.406494,612.698730 600.144470,616.028259 597.030090,619.485840 
	C591.322571,625.822266 585.887512,632.432739 579.817810,638.398926 
	C577.653198,640.526611 574.466125,642.003479 570.529358,640.369446 
	C566.908264,638.866394 562.734802,638.623169 558.774780,638.021240 
	C548.048035,636.390625 537.321960,634.737000 526.563477,633.339783 
	C518.948730,632.350891 511.261230,631.923706 503.644653,630.946106 
	C498.098755,630.234314 492.625275,628.972168 487.097076,628.097473 
	C485.860352,627.901855 484.529053,628.293091 483.242554,628.426025 
	C481.467163,628.609497 479.658661,629.126831 477.923798,628.942322 
	C466.414307,627.718140 454.919067,626.358154 443.425018,624.993225 
	C442.513519,624.885010 441.646179,624.404602 440.377045,623.965149 
	C439.500244,631.282776 432.448975,632.530151 428.003937,636.392883 
	C421.234528,642.275513 414.096466,647.733337 407.128448,653.388062 
	C401.576019,657.894043 396.089752,662.482849 390.489624,666.928467 
	C384.721771,671.507385 378.832092,675.932495 373.031433,680.470520 
	C366.515411,685.568237 359.993835,690.660583 353.557922,695.858398 
	C346.183624,701.814026 338.915894,707.901550 331.572510,713.895874 
	C327.393890,717.306763 322.996094,720.466370 318.980835,724.056641 
	C311.769318,730.505005 304.879028,737.313477 297.645569,743.736145 
	C293.058441,747.809082 288.093536,751.456543 282.539642,755.901855 
	C281.394836,753.278625 280.284882,751.239685 279.593964,749.067505 
	C276.007050,737.791077 272.282074,726.549316 269.089966,715.159668 
	C266.671631,706.530884 265.137085,697.658691 262.929688,688.965759 
	C259.400391,675.067078 255.500275,661.262085 252.012421,647.353455 
	C247.967651,631.223938 244.103485,615.047363 240.349045,598.847656 
	C238.359253,590.262024 236.876373,581.559753 234.949310,572.958374 
	C234.049057,568.940308 233.250290,564.674316 231.211243,561.227112 
	C230.118103,559.379089 226.571426,558.474243 223.995193,558.109497 
	C217.057175,557.127319 210.015991,556.884460 203.069778,555.947632 
	C189.454010,554.111145 175.891296,551.881836 162.276031,550.041382 
	C148.796539,548.219177 135.256134,546.842102 121.785408,544.961914 
	C109.142197,543.197205 96.573715,540.901306 83.937683,539.079590 
	C73.357559,537.554199 62.722950,536.410034 52.121422,535.028320 
	C47.222580,534.389893 42.271206,533.066650 40.550987,527.929749 
	C39.182194,523.842346 38.955387,519.219543 42.244671,515.506287 
	C43.280155,514.337341 44.557652,513.167664 45.966961,512.582458 
	C51.879173,510.127594 57.874680,507.871521 63.855553,505.584167 
	C79.419395,499.631775 94.999229,493.721191 110.558495,487.756897 
	C129.007950,480.684723 147.397171,473.452637 165.899368,466.521790 
	C178.506180,461.799286 191.289230,457.549469 203.942322,452.947693 
	C213.780106,449.369843 223.560593,445.631134 233.326797,441.860931 
	C243.405960,437.969910 253.409576,433.882629 263.497040,430.013763 
	C273.413208,426.210632 283.425415,422.657623 293.337067,418.843140 
	C306.049530,413.950806 318.693817,408.881714 331.386108,403.936523 
	C341.168243,400.125214 350.922394,396.230988 360.791260,392.655975 
	C373.782501,387.949890 386.926270,383.663574 399.902618,378.918213 
	C407.613708,376.098297 415.056580,372.549286 422.748688,369.671967 
	C435.341187,364.961517 448.056488,360.580505 460.685974,355.967377 
	C470.560150,352.360687 480.404388,348.669342 490.224030,344.916473 
	C515.375916,335.303772 540.526733,325.687683 565.637695,315.968903 
	C578.833313,310.861755 591.898682,305.417084 605.107727,300.345856 
	C616.277527,296.057556 627.547668,292.026306 638.813599,287.993774 
	C650.284607,283.887878 661.867126,280.087280 673.287964,275.848938 
	C688.018127,270.382538 702.604919,264.531128 717.311035,258.998474 
	C732.625305,253.237000 748.000977,247.637863 763.363037,242.003998 
	C778.901245,236.305542 794.473694,230.700211 809.997620,224.963303 
	C823.551758,219.954300 837.046448,214.784668 850.592529,209.753677 
	C857.475342,207.197433 864.479248,204.957977 871.312805,202.280289 
	C884.926514,196.945938 898.385864,191.212128 912.047424,186.006790 
	C926.743469,180.407349 941.655457,175.375275 956.354492,169.783310 
	C961.939026,167.658737 967.288452,164.843109 972.567688,162.011719 
	C976.955139,159.658585 982.682007,160.800003 985.555115,165.074860 
	C990.522949,172.466400 990.142334,174.971741 984.167908,181.407303 
	C973.893005,192.475327 963.864014,203.771210 953.647949,214.894424 
	C950.715759,218.086929 947.495178,221.014481 944.229736,224.384521 
M889.182678,222.983505 
	C882.846130,225.787918 876.349060,228.281631 870.204529,231.457489 
	C854.478821,239.585480 838.950195,248.093750 823.269958,256.311005 
	C791.742981,272.832794 760.198486,289.321960 728.599731,305.705933 
	C710.829773,314.919678 692.885681,323.797729 675.113892,333.008057 
	C657.041992,342.373871 639.118835,352.026459 621.067627,361.432800 
	C606.108154,369.228119 591.037292,376.809479 576.051270,384.554382 
	C550.627563,397.693542 525.253235,410.928192 499.816956,424.042938 
	C482.611877,432.913757 465.310364,441.597351 448.097900,450.453979 
	C417.960907,465.960999 387.841278,481.502014 357.752594,497.102539 
	C347.346344,502.498016 337.076385,508.155762 326.703888,513.617126 
	C312.056885,521.329041 297.436005,529.094910 282.683655,536.601318 
	C271.076172,542.507446 259.241364,547.965637 247.600784,553.808594 
	C243.034378,556.100647 242.072479,559.366577 243.577133,564.215576 
	C244.650894,567.676025 245.430786,571.226868 246.376724,574.727844 
	C258.284302,618.799011 270.202362,662.867310 282.106110,706.939514 
	C283.887604,713.535156 285.609741,720.146729 287.359344,726.750977 
	C287.816345,726.768677 288.273346,726.786316 288.730347,726.804016 
	C289.308167,724.562744 289.871613,722.317566 290.466095,720.080750 
	C295.376556,701.604431 300.333984,683.140503 305.195465,664.651245 
	C309.928101,646.651917 314.037720,628.462463 319.587097,610.721252 
	C321.107452,605.860840 326.217377,601.460449 330.702911,598.301270 
	C353.900787,581.963135 377.315704,565.924988 400.881348,550.119812 
	C419.383636,537.710571 438.291138,525.907349 456.880676,513.625977 
	C478.905457,499.075165 500.834106,484.377075 522.707520,469.599396 
	C541.707581,456.763000 560.517883,443.645905 579.511719,430.800293 
	C600.979797,416.281342 622.546448,401.907959 644.094299,387.507263 
	C659.324646,377.328583 674.484375,367.038483 689.870239,357.099213 
	C723.977539,335.065857 758.373962,313.476196 792.325073,291.206390 
	C813.005188,277.641479 833.069336,263.137970 853.422485,249.073929 
	C865.759644,240.549042 878.120422,232.058426 891.007629,223.292938 
	C891.823242,222.798126 892.638855,222.303329 893.454468,221.808517 
	C893.302551,221.565155 893.150635,221.321777 892.998718,221.078400 
	C891.976379,221.690826 890.953979,222.303253 889.182678,222.983505 
M329.545288,632.919800 
	C320.444855,663.784973 311.344391,694.650208 302.243927,725.515381 
	C302.572968,725.764343 302.902039,726.013245 303.231079,726.262207 
	C344.140259,691.799622 385.049438,657.336975 425.958618,622.874329 
	C425.703094,622.422302 425.447601,621.970215 425.192078,621.518188 
	C419.663330,621.012024 414.138397,620.459167 408.605011,620.010193 
	C399.548706,619.275452 390.465912,618.809143 381.432312,617.865784 
	C367.507477,616.411682 353.624084,614.557495 339.694397,613.159058 
	C338.261810,613.015259 335.763733,614.471802 335.249023,615.774109 
	C333.138519,621.114075 331.604736,626.682007 329.545288,632.919800 
z"/>
<path fill="#637D8F" opacity="1.000000" stroke="none" 
	d="
M890.470581,223.552414 
	C878.120422,232.058426 865.759644,240.549042 853.422485,249.073929 
	C833.069336,263.137970 813.005188,277.641479 792.325073,291.206390 
	C758.373962,313.476196 723.977539,335.065857 689.870239,357.099213 
	C674.484375,367.038483 659.324646,377.328583 644.094299,387.507263 
	C622.546448,401.907959 600.979797,416.281342 579.511719,430.800293 
	C560.517883,443.645905 541.707581,456.763000 522.707520,469.599396 
	C500.834106,484.377075 478.905457,499.075165 456.880676,513.625977 
	C438.291138,525.907349 419.383636,537.710571 400.881348,550.119812 
	C377.315704,565.924988 353.900787,581.963135 330.702911,598.301270 
	C326.217377,601.460449 321.107452,605.860840 319.587097,610.721252 
	C314.037720,628.462463 309.928101,646.651917 305.195465,664.651245 
	C300.333984,683.140503 295.376556,701.604431 290.466095,720.080750 
	C289.871613,722.317566 289.308167,724.562744 288.730347,726.804016 
	C288.273346,726.786316 287.816345,726.768677 287.359344,726.750977 
	C285.609741,720.146729 283.887604,713.535156 282.106110,706.939514 
	C270.202362,662.867310 258.284302,618.799011 246.376724,574.727844 
	C245.430786,571.226868 244.650894,567.676025 243.577133,564.215576 
	C242.072479,559.366577 243.034378,556.100647 247.600784,553.808594 
	C259.241364,547.965637 271.076172,542.507446 282.683655,536.601318 
	C297.436005,529.094910 312.056885,521.329041 326.703888,513.617126 
	C337.076385,508.155762 347.346344,502.498016 357.752594,497.102539 
	C387.841278,481.502014 417.960907,465.960999 448.097900,450.453979 
	C465.310364,441.597351 482.611877,432.913757 499.816956,424.042938 
	C525.253235,410.928192 550.627563,397.693542 576.051270,384.554382 
	C591.037292,376.809479 606.108154,369.228119 621.067627,361.432800 
	C639.118835,352.026459 657.041992,342.373871 675.113892,333.008057 
	C692.885681,323.797729 710.829773,314.919678 728.599731,305.705933 
	C760.198486,289.321960 791.742981,272.832794 823.269958,256.311005 
	C838.950195,248.093750 854.478821,239.585480 870.204529,231.457489 
	C876.349060,228.281631 882.846130,225.787918 889.687134,223.112778 
	C890.191650,223.242050 890.470581,223.552414 890.470581,223.552414 
z"/>
<path fill="#637D8F" opacity="1.000000" stroke="none" 
	d="
M329.702026,632.542908 
	C331.604736,626.682007 333.138519,621.114075 335.249023,615.774109 
	C335.763733,614.471802 338.261810,613.015259 339.694397,613.159058 
	C353.624084,614.557495 367.507477,616.411682 381.432312,617.865784 
	C390.465912,618.809143 399.548706,619.275452 408.605011,620.010193 
	C414.138397,620.459167 419.663330,621.012024 425.192078,621.518188 
	C425.447601,621.970215 425.703094,622.422302 425.958618,622.874329 
	C385.049438,657.336975 344.140259,691.799622 303.231079,726.262207 
	C302.902039,726.013245 302.572968,725.764343 302.243927,725.515381 
	C311.344391,694.650208 320.444855,663.784973 329.702026,632.542908 
z"/>
<path fill="#637D8F" opacity="1.000000" stroke="none" 
	d="
M890.061646,223.078857 
	C890.953979,222.303253 891.976379,221.690826 892.998718,221.078400 
	C893.150635,221.321777 893.302551,221.565155 893.454468,221.808517 
	C892.638855,222.303329 891.823242,222.798126 890.739136,223.422668 
	C890.470581,223.552414 890.191650,223.242050 890.061646,223.078857 
z"/>
</svg>